<?xml version="1.0" encoding="utf-8"?>
<!-- Generator: Adobe Illustrator 26.0.1, SVG Export Plug-In . SVG Version: 6.00 Build 0)  -->
<svg version="1.1" id="Capa_1" xmlns="http://www.w3.org/2000/svg" xmlns:xlink="http://www.w3.org/1999/xlink" x="0px" y="0px"
	 viewBox="0 0 1600 1200" style="enable-background:new 0 0 1600 1200;" xml:space="preserve">
<style type="text/css">
	.st0{fill:url(#SVGID_1_);}
	.st1{fill:url(#SVGID_00000133505920248769035910000005756652867262151302_);}
	.st2{fill:url(#SVGID_00000148639447684988130800000012608971720853722785_);}
	.st3{fill:url(#SVGID_00000129903521339759141870000007530264664306474380_);}
	.st4{fill:#3A3A3A;}
	.st5{fill:url(#SVGID_00000146491320441974830560000013395057685423968130_);}
	.st6{fill:url(#SVGID_00000056388044534426660890000017425509918878616961_);}
	.st7{fill:url(#SVGID_00000102543573228985789100000010262001850251230617_);}
	.st8{fill:url(#SVGID_00000003791475296384306350000014809948832241720511_);}
	.st9{fill:#676767;}
	.st10{clip-path:url(#SVGID_00000049917977892014482310000012674658360674956733_);}
	.st11{filter:url(#Adobe_OpacityMaskFilter);}
	.st12{filter:url(#Adobe_OpacityMaskFilter_00000034803025851148023810000001019634964702804918_);}
	
		.st13{mask:url(#SVGID_00000117650599593084894430000003702804904471550086_);fill:url(#SVGID_00000000910642650585163420000009050200988534779817_);}
	.st14{opacity:0.2;fill:url(#SVGID_00000163765510414573213210000016827766902210939304_);}
	.st15{fill:none;}
	.st16{fill:#DDDEDE;}
	.st17{fill:#A5A4A5;}
</style>
<g>
	<g>
		<linearGradient id="SVGID_1_" gradientUnits="userSpaceOnUse" x1="811.0404" y1="705.4565" x2="811.0404" y2="36.9083">
			<stop  offset="0" style="stop-color:#9C9B9B"/>
			<stop  offset="9.552444e-02" style="stop-color:#A4A3A3"/>
			<stop  offset="0.2431" style="stop-color:#BAB9B9"/>
			<stop  offset="0.4234" style="stop-color:#DDDCDC"/>
			<stop  offset="0.447" style="stop-color:#E2E1E1"/>
			<stop  offset="1" style="stop-color:#C6C6C6"/>
		</linearGradient>
		<path class="st0" d="M1281.5,36.9H340.7c-16.9,0-30.5,13.7-30.5,30.5v638h4.4V63.1c0-1.3,0.1-2.7,0.3-4c0.1-0.4,0.1-0.9,0.2-1.3
			c0.1-0.4,0.2-0.8,0.3-1.3c0.1-0.4,0.2-0.8,0.4-1.2c1.1-3.5,2.9-6.6,5.2-9.3c0.3-0.3,0.6-0.6,0.8-0.9c0.1-0.2,0.3-0.3,0.4-0.4
			c1.3-1.3,2.8-2.5,4.4-3.5c0.5-0.3,1.1-0.7,1.6-1c0.6-0.3,1.1-0.6,1.7-0.8c0,0,0,0,0,0c0.4-0.2,0.8-0.3,1.2-0.5c0,0,0,0,0,0
			c3-1.2,6.2-1.8,9.6-1.8L1281.5,36.9c4.4,0.1,8.7,1.2,12.4,3.2c0.6,0.3,1.1,0.6,1.6,1c0.7,0.5,1.4,0.9,2,1.5c0,0,0,0,0,0
			c0.3,0.3,0.7,0.5,1,0.8c0,0,0,0,0,0c0.5,0.4,0.9,0.8,1.4,1.3c0.2,0.2,0.3,0.3,0.4,0.4c0.3,0.3,0.6,0.6,0.8,0.9
			c4,4.6,6.4,10.5,6.4,17.1v642.4h4.4V65.5C1310.9,49.6,1297.7,36.9,1281.5,36.9z"/>
		<path d="M1307.5,63.1v621h-993v-621c0-14.4,11.7-26.1,26.1-26.1h940.8C1295.8,37,1307.5,48.7,1307.5,63.1z"/>
		<g>
			
				<linearGradient id="SVGID_00000103245421617119430460000012930236509395398580_" gradientUnits="userSpaceOnUse" x1="811.0093" y1="735.7025" x2="811.0093" y2="715.4263">
				<stop  offset="0" style="stop-color:#EEEDED"/>
				<stop  offset="0.464" style="stop-color:#CBCACA"/>
				<stop  offset="1" style="stop-color:#676767"/>
			</linearGradient>
			<path style="fill:url(#SVGID_00000103245421617119430460000012930236509395398580_);" d="M198.4,715.4
				c43.1,13.4,87.9,20.3,133.1,20.3H811h479.5c45.1,0,90-6.8,133.1-20.3H811H198.4z"/>
			
				<linearGradient id="SVGID_00000026149076074088379460000017381113964184135592_" gradientUnits="userSpaceOnUse" x1="-5556.8154" y1="712.8766" x2="-5046.8359" y2="712.8766" gradientTransform="matrix(-1 0 0 1 -4848.4165 0)">
				<stop  offset="0" style="stop-color:#EFEFF0"/>
				<stop  offset="8.289530e-04" style="stop-color:#E8E8E8"/>
				<stop  offset="3.875887e-03" style="stop-color:#D2D2D2"/>
				<stop  offset="6.752879e-03" style="stop-color:#C5C5C4"/>
				<stop  offset="9.264740e-03" style="stop-color:#C0C0BF"/>
				<stop  offset="1.287966e-02" style="stop-color:#C3C3C2"/>
				<stop  offset="1.577852e-02" style="stop-color:#CCCCCC"/>
				<stop  offset="1.775940e-02" style="stop-color:#D7D7D8"/>
				<stop  offset="2.534020e-02" style="stop-color:#F6F5F5"/>
				<stop  offset="0.4016" style="stop-color:#FFFFFF"/>
				<stop  offset="0.4064" style="stop-color:#FFFFFF"/>
				<stop  offset="0.9354" style="stop-color:#E3E3E3"/>
				<stop  offset="0.9587" style="stop-color:#C2C2C2"/>
				<stop  offset="0.9731" style="stop-color:#B3B3B2"/>
				<stop  offset="0.9792" style="stop-color:#B8B8B7"/>
				<stop  offset="0.9863" style="stop-color:#C6C6C5"/>
				<stop  offset="0.994" style="stop-color:#DEDEDD"/>
				<stop  offset="1" style="stop-color:#F6F5F5"/>
			</linearGradient>
			<path style="fill:url(#SVGID_00000026149076074088379460000017381113964184135592_);" d="M198.4,708.1v7.3h493.9
				c4.9,0,9.7,0.7,14.4,1.8c0.6,0.1,1.1,0.3,1.7,0.4v-9.5H198.4z"/>
			
				<linearGradient id="SVGID_00000091005573980862592500000009753625804847155079_" gradientUnits="userSpaceOnUse" x1="-5556.8154" y1="711.8197" x2="-5046.8359" y2="711.8197" gradientTransform="matrix(-1 0 0 1 -4848.4165 0)">
				<stop  offset="0" style="stop-color:#E2E1E1"/>
				<stop  offset="1.380063e-03" style="stop-color:#C9C9C9"/>
				<stop  offset="3.528175e-03" style="stop-color:#AAA9A9"/>
				<stop  offset="5.604941e-03" style="stop-color:#939292"/>
				<stop  offset="7.559071e-03" style="stop-color:#858585"/>
				<stop  offset="9.264740e-03" style="stop-color:#808080"/>
				<stop  offset="1.202249e-02" style="stop-color:#838383"/>
				<stop  offset="1.423695e-02" style="stop-color:#8D8D8D"/>
				<stop  offset="1.625580e-02" style="stop-color:#9E9E9D"/>
				<stop  offset="1.775940e-02" style="stop-color:#B0B0AF"/>
				<stop  offset="2.534020e-02" style="stop-color:#EEEDED"/>
				<stop  offset="0.4016" style="stop-color:#FFFFFF"/>
				<stop  offset="0.4064" style="stop-color:#FFFFFF"/>
				<stop  offset="0.9354" style="stop-color:#CAC8C8"/>
				<stop  offset="0.9496" style="stop-color:#9F9E9E"/>
				<stop  offset="0.9651" style="stop-color:#777676"/>
				<stop  offset="0.9731" style="stop-color:#676767"/>
				<stop  offset="0.9772" style="stop-color:#6C6C6C"/>
				<stop  offset="0.9819" style="stop-color:#7A7A7A"/>
				<stop  offset="0.9871" style="stop-color:#929292"/>
				<stop  offset="0.9926" style="stop-color:#B4B3B3"/>
				<stop  offset="0.9982" style="stop-color:#DFDEDE"/>
				<stop  offset="1" style="stop-color:#EEEDED"/>
			</linearGradient>
			<path style="fill:url(#SVGID_00000091005573980862592500000009753625804847155079_);" d="M198.4,707.1v7.3h493.9
				c4.9,0,9.7,0.7,14.4,1.8c0.6,0.1,1.1,0.3,1.7,0.4v-9.5H198.4z"/>
			<rect x="314.5" y="684" class="st4" width="993" height="21.4"/>
			
				<linearGradient id="SVGID_00000021116723614878614310000014244286028125502122_" gradientUnits="userSpaceOnUse" x1="913.5576" y1="712.8766" x2="1423.5367" y2="712.8766">
				<stop  offset="0" style="stop-color:#EFEFF0"/>
				<stop  offset="8.289530e-04" style="stop-color:#E8E8E8"/>
				<stop  offset="3.875887e-03" style="stop-color:#D2D2D2"/>
				<stop  offset="6.752879e-03" style="stop-color:#C5C5C4"/>
				<stop  offset="9.264740e-03" style="stop-color:#C0C0BF"/>
				<stop  offset="1.287966e-02" style="stop-color:#C3C3C2"/>
				<stop  offset="1.577852e-02" style="stop-color:#CCCCCC"/>
				<stop  offset="1.775940e-02" style="stop-color:#D7D7D8"/>
				<stop  offset="2.534020e-02" style="stop-color:#F6F5F5"/>
				<stop  offset="0.4016" style="stop-color:#FFFFFF"/>
				<stop  offset="0.4064" style="stop-color:#FFFFFF"/>
				<stop  offset="0.9354" style="stop-color:#E3E3E3"/>
				<stop  offset="0.9587" style="stop-color:#C2C2C2"/>
				<stop  offset="0.9731" style="stop-color:#B3B3B2"/>
				<stop  offset="0.9792" style="stop-color:#B8B8B7"/>
				<stop  offset="0.9863" style="stop-color:#C6C6C5"/>
				<stop  offset="0.994" style="stop-color:#DEDEDD"/>
				<stop  offset="1" style="stop-color:#F6F5F5"/>
			</linearGradient>
			<path style="fill:url(#SVGID_00000021116723614878614310000014244286028125502122_);" d="M1423.5,708.1v7.3H929.7
				c-4.9,0-9.7,0.7-14.4,1.8c-0.6,0.1-1.1,0.3-1.7,0.4v-9.5H1423.5z"/>
			
				<linearGradient id="SVGID_00000152973563392789125110000011129115003379500219_" gradientUnits="userSpaceOnUse" x1="708.3988" y1="713.1732" x2="913.5576" y2="713.1732">
				<stop  offset="0" style="stop-color:#F6F5F5"/>
				<stop  offset="6.122410e-02" style="stop-color:#E3E3E3"/>
				<stop  offset="0.5076" style="stop-color:#F6F5F5"/>
				<stop  offset="0.9402" style="stop-color:#E3E3E3"/>
				<stop  offset="1" style="stop-color:#F6F5F5"/>
			</linearGradient>
			<path style="fill:url(#SVGID_00000152973563392789125110000011129115003379500219_);" d="M913.6,708.1v9.5
				c-2.1,0.4-4.2,0.6-6.4,0.6H714.8c-2.1,0-4.3-0.2-6.4-0.6v-9.5H913.6z"/>
			
				<linearGradient id="SVGID_00000180364140354683173710000005057173104083528358_" gradientUnits="userSpaceOnUse" x1="913.5576" y1="711.8197" x2="1423.5367" y2="711.8197">
				<stop  offset="0" style="stop-color:#E2E1E1"/>
				<stop  offset="1.380063e-03" style="stop-color:#C9C9C9"/>
				<stop  offset="3.528175e-03" style="stop-color:#AAA9A9"/>
				<stop  offset="5.604941e-03" style="stop-color:#939292"/>
				<stop  offset="7.559071e-03" style="stop-color:#858585"/>
				<stop  offset="9.264740e-03" style="stop-color:#808080"/>
				<stop  offset="1.202249e-02" style="stop-color:#838383"/>
				<stop  offset="1.423695e-02" style="stop-color:#8D8D8D"/>
				<stop  offset="1.625580e-02" style="stop-color:#9E9E9D"/>
				<stop  offset="1.775940e-02" style="stop-color:#B0B0AF"/>
				<stop  offset="2.534020e-02" style="stop-color:#EEEDED"/>
				<stop  offset="0.4016" style="stop-color:#FFFFFF"/>
				<stop  offset="0.4064" style="stop-color:#FFFFFF"/>
				<stop  offset="0.9354" style="stop-color:#CAC8C8"/>
				<stop  offset="0.9496" style="stop-color:#9F9E9E"/>
				<stop  offset="0.9651" style="stop-color:#777676"/>
				<stop  offset="0.9731" style="stop-color:#676767"/>
				<stop  offset="0.9772" style="stop-color:#6C6C6C"/>
				<stop  offset="0.9819" style="stop-color:#7A7A7A"/>
				<stop  offset="0.9871" style="stop-color:#929292"/>
				<stop  offset="0.9926" style="stop-color:#B4B3B3"/>
				<stop  offset="0.9982" style="stop-color:#DFDEDE"/>
				<stop  offset="1" style="stop-color:#EEEDED"/>
			</linearGradient>
			<path style="fill:url(#SVGID_00000180364140354683173710000005057173104083528358_);" d="M1423.5,707.1v7.3H929.7
				c-4.9,0-9.7,0.7-14.4,1.8c-0.6,0.1-1.1,0.3-1.7,0.4v-9.5H1423.5z"/>
			
				<linearGradient id="SVGID_00000124130171410539864560000004018423500553164419_" gradientUnits="userSpaceOnUse" x1="708.3988" y1="712.1162" x2="913.5576" y2="712.1162">
				<stop  offset="0" style="stop-color:#EEEDED"/>
				<stop  offset="6.122410e-02" style="stop-color:#CAC8C8"/>
				<stop  offset="0.5076" style="stop-color:#EEEDED"/>
				<stop  offset="0.9402" style="stop-color:#CAC8C8"/>
				<stop  offset="1" style="stop-color:#EEEDED"/>
			</linearGradient>
			<path style="fill:url(#SVGID_00000124130171410539864560000004018423500553164419_);" d="M913.6,707.1v9.5
				c-2.1,0.4-4.2,0.6-6.4,0.6H714.8c-2.1,0-4.3-0.2-6.4-0.6v-9.5H913.6z"/>
			<polygon class="st9" points="1311.9,705.5 1311.9,707.1 1307.5,707.1 1307.5,707.1 314.5,707.1 314.5,707.1 310.2,707.1 
				310.2,705.5 			"/>
		</g>
	</g>
	<g>
		<defs>
			<rect id="SVGID_00000127764520896797562010000004611375481579776438_" x="335" y="61.9" width="951.9" height="597.2"/>
		</defs>
		<clipPath id="SVGID_00000173154861372284609350000014715883123208786876_">
			<use xlink:href="#SVGID_00000127764520896797562010000004611375481579776438_"  style="overflow:visible;"/>
		</clipPath>
		<g style="clip-path:url(#SVGID_00000173154861372284609350000014715883123208786876_);">
			<defs>
				<rect id="SVGID_00000072998135810652045550000000539387000677515452_" x="332.3" y="65.7" width="1053.4" height="660.8"/>
			</defs>
			<clipPath id="SVGID_00000133528045665702883960000010488708472203065479_">
				<use xlink:href="#SVGID_00000072998135810652045550000000539387000677515452_"  style="overflow:visible;"/>
			</clipPath>
			<g transform="matrix(1 0 0 1 0 0)" style="clip-path:url(#SVGID_00000133528045665702883960000010488708472203065479_);">
				
					<image style="overflow:visible;" width="1366" height="1299" xlink:href="FE3C7C.png"  transform="matrix(0.7711 0 0 0.7711 332.3057 65.6649)">
				</image>
			</g>
		</g>
	</g>
	<defs>
		<filter id="Adobe_OpacityMaskFilter" filterUnits="userSpaceOnUse" x="1299.8" y="44.5" width="0.2" height="0.2">
			<feFlood  style="flood-color:white;flood-opacity:1" result="back"/>
			<feBlend  in="SourceGraphic" in2="back" mode="normal"/>
		</filter>
	</defs>
	
		<mask maskUnits="userSpaceOnUse" x="1299.8" y="44.5" width="0.2" height="0.2" id="SVGID_00000078002584977046561630000018138668291312033439_">
		<g class="st11">
			<defs>
				
					<filter id="Adobe_OpacityMaskFilter_00000035530441638409800890000001213957225008342186_" filterUnits="userSpaceOnUse" x="498.9" y="32.5" width="813.1" height="674.5">
					<feFlood  style="flood-color:white;flood-opacity:1" result="back"/>
					<feBlend  in="SourceGraphic" in2="back" mode="normal"/>
				</filter>
			</defs>
			
				<mask maskUnits="userSpaceOnUse" x="498.9" y="32.5" width="813.1" height="674.5" id="SVGID_00000078002584977046561630000018138668291312033439_">
				<g style="filter:url(#Adobe_OpacityMaskFilter_00000035530441638409800890000001213957225008342186_);">
				</g>
			</mask>
			
				<linearGradient id="SVGID_00000037694723398252340900000018431907469957813938_" gradientUnits="userSpaceOnUse" x1="905.4011" y1="707.09" x2="905.4011" y2="32.544">
				<stop  offset="0" style="stop-color:#000000"/>
				<stop  offset="0.3726" style="stop-color:#020202"/>
				<stop  offset="0.5069" style="stop-color:#090909"/>
				<stop  offset="0.6026" style="stop-color:#141414"/>
				<stop  offset="0.68" style="stop-color:#252525"/>
				<stop  offset="0.7463" style="stop-color:#3B3B3B"/>
				<stop  offset="0.805" style="stop-color:#575757"/>
				<stop  offset="0.8581" style="stop-color:#777777"/>
				<stop  offset="0.9069" style="stop-color:#9D9D9D"/>
				<stop  offset="0.9523" style="stop-color:#C8C8C8"/>
				<stop  offset="0.9926" style="stop-color:#F6F6F6"/>
				<stop  offset="1" style="stop-color:#FFFFFF"/>
			</linearGradient>
			
				<path style="mask:url(#SVGID_00000078002584977046561630000018138668291312033439_);fill:url(#SVGID_00000037694723398252340900000018431907469957813938_);" d="
				M1281.4,32.5h-108L498.9,707.1h808.6v0h4.4v-644C1311.9,46.2,1298.3,32.5,1281.4,32.5z M1299.8,44.5
				C1299.8,44.6,1299.8,44.6,1299.8,44.5c0.1,0.1,0.2,0.2,0.2,0.2L1299.8,44.5z"/>
		</g>
	</mask>
	
		<linearGradient id="SVGID_00000143613781118585384790000001224997142037610673_" gradientUnits="userSpaceOnUse" x1="1299.8766" y1="44.7472" x2="1299.8766" y2="44.5494">
		<stop  offset="0" style="stop-color:#FFFFFF"/>
		<stop  offset="0.8587" style="stop-color:#FFFFFF"/>
		<stop  offset="1" style="stop-color:#FFFFFF"/>
	</linearGradient>
	<path style="opacity:0.2;fill:url(#SVGID_00000143613781118585384790000001224997142037610673_);" d="M1299.8,44.5
		C1299.8,44.6,1299.8,44.6,1299.8,44.5c0.1,0.1,0.2,0.2,0.2,0.2L1299.8,44.5z"/>
	<g>
		<path class="st15" d="M1001.6,485.3c-0.1-1.4-0.4-2.9-0.7-4.2c-0.1-0.3-0.1-0.6-0.2-0.8c-0.1-0.2-0.1-0.5-0.2-0.7
			c-0.7-2.5-1.6-4.8-2.8-7c-0.1-0.2-0.3-0.5-0.4-0.7c-0.5-1-1.1-1.9-1.7-2.8c-0.2-0.2-0.3-0.4-0.5-0.6c-0.3-0.4-0.6-0.8-0.9-1.2
			c-0.8-1-1.6-1.9-2.5-2.8c-0.2-0.2-0.4-0.4-0.6-0.6c-0.1-0.1-0.2-0.2-0.3-0.3c-0.1-0.1-0.2-0.2-0.3-0.3c-0.3-0.3-0.6-0.6-0.9-0.9
			c-0.3-0.3-0.6-0.5-0.9-0.8c-0.1-0.1-0.3-0.2-0.4-0.3c-0.1-0.1-0.2-0.1-0.2-0.2c-0.3-0.3-0.7-0.5-1-0.8c0,0-0.1,0-0.1-0.1
			c-0.4-0.3-0.8-0.6-1.3-0.9c0,0-0.1-0.1-0.1-0.1c-0.4-0.3-0.8-0.5-1.3-0.8c-0.5-0.3-1-0.5-1.4-0.8c-0.1,0-0.2-0.1-0.2-0.1
			c-0.4-0.2-0.8-0.4-1.3-0.6c-0.5-0.2-1-0.5-1.5-0.7c-0.5-0.2-1-0.4-1.6-0.6c-1.6-0.6-3.2-1-4.8-1.3c-0.6-0.1-1.1-0.2-1.7-0.3
			c-0.5-0.1-1-0.1-1.5-0.2c-0.1,0-0.2,0-0.2,0c-0.2,0-0.5-0.1-0.8-0.1c-0.3,0-0.6-0.1-0.9-0.1c-0.5,0-1.1,0-1.6,0H211.4
			c-0.6,0-1.1,0-1.6,0c-0.3,0-0.6,0-0.9,0.1c-0.3,0-0.5,0-0.8,0.1c-0.1,0-0.2,0-0.2,0c-0.5,0-1,0.1-1.5,0.2
			c-0.6,0.1-1.1,0.2-1.7,0.3c-1.7,0.3-3.3,0.8-4.8,1.3c-0.5,0.2-1,0.4-1.6,0.6c-0.5,0.2-1,0.4-1.5,0.7c-0.4,0.2-0.8,0.4-1.3,0.6
			c-0.1,0-0.2,0.1-0.2,0.1c-0.5,0.3-1,0.5-1.4,0.8c-0.4,0.2-0.9,0.5-1.3,0.8c0,0-0.1,0.1-0.1,0.1c-0.4,0.3-0.9,0.6-1.3,0.9
			c0,0-0.1,0.1-0.1,0.1c-0.3,0.2-0.7,0.5-1,0.8c-0.1,0.1-0.2,0.1-0.2,0.2c-0.1,0.1-0.3,0.2-0.4,0.3c-0.3,0.2-0.6,0.5-0.9,0.8
			c-0.3,0.3-0.6,0.6-0.9,0.9c-0.1,0.1-0.2,0.2-0.3,0.3c-0.1,0.1-0.2,0.2-0.3,0.3c-0.2,0.2-0.4,0.4-0.6,0.6c-0.9,0.9-1.7,1.8-2.5,2.8
			c-0.3,0.4-0.6,0.8-0.9,1.2c-0.2,0.2-0.3,0.4-0.5,0.6c-0.6,0.9-1.2,1.9-1.7,2.8c-0.1,0.2-0.3,0.5-0.4,0.7c-1.2,2.2-2.1,4.6-2.8,7
			c-0.1,0.2-0.1,0.5-0.2,0.7c-0.1,0.3-0.1,0.5-0.2,0.8c-0.3,1.4-0.5,2.8-0.7,4.2c0,0.3-0.1,0.6-0.1,0.8c-0.1,0.9-0.1,1.7-0.1,2.6
			v560.1c0,0.9,0,1.7,0.1,2.6c0,0.2,0,0.5,0.1,0.7c0.1,1.5,0.4,2.9,0.7,4.3c0.1,0.3,0.1,0.5,0.2,0.8c0,0.2,0.1,0.4,0.2,0.6
			c0.7,2.5,1.6,4.9,2.8,7.1c0.1,0.2,0.2,0.5,0.4,0.7c0.3,0.5,0.6,1,0.9,1.4c0.1,0.2,0.3,0.4,0.4,0.7c0.1,0.2,0.3,0.5,0.5,0.7
			c0.4,0.6,0.9,1.2,1.4,1.8c0.2,0.3,0.4,0.5,0.6,0.8c0.3,0.4,0.7,0.8,1,1.2c0.2,0.2,0.4,0.4,0.6,0.7c0.4,0.4,0.7,0.8,1.1,1.1
			c0,0,0,0,0,0c0.8,0.7,1.6,1.4,2.4,2.1c0,0,0,0,0.1,0c1.3,1,2.6,1.9,4,2.7c0.5,0.3,1,0.6,1.4,0.8c0.1,0,0.2,0.1,0.2,0.1
			c0.4,0.2,0.8,0.4,1.3,0.6c0.5,0.2,1,0.5,1.5,0.7c0.5,0.2,1,0.4,1.6,0.6c0.5,0.2,1,0.4,1.5,0.5c0,0,0.1,0,0.1,0
			c0.5,0.2,1,0.3,1.6,0.4c0.5,0.1,1.1,0.3,1.6,0.4c0.6,0.1,1.1,0.2,1.7,0.3c0.5,0.1,1,0.1,1.5,0.2c0.1,0,0.2,0,0.2,0
			c0.8,0.1,1.6,0.1,2.4,0.2c0.3,0,0.6,0,0.9,0h755.4c0.3,0,0.6,0,0.9,0c0.8,0,1.6-0.1,2.4-0.2c0.1,0,0.2,0,0.2,0
			c0.5,0,1-0.1,1.5-0.2c0.6-0.1,1.1-0.2,1.7-0.3c0.6-0.1,1.1-0.2,1.6-0.4c0.5-0.1,1.1-0.3,1.6-0.4c0,0,0.1,0,0.1,0
			c0.5-0.2,1-0.3,1.5-0.5c0.5-0.2,1-0.4,1.6-0.6c0.5-0.2,1-0.4,1.5-0.7c0.4-0.2,0.8-0.4,1.3-0.6c0.1,0,0.2-0.1,0.2-0.1
			c0.5-0.2,1-0.5,1.4-0.8c1.4-0.8,2.7-1.7,4-2.7c0,0,0,0,0.1,0c0.9-0.7,1.7-1.4,2.4-2.1c0,0,0,0,0,0c0.4-0.4,0.8-0.7,1.1-1.1
			c0.2-0.2,0.4-0.4,0.6-0.7c0.3-0.4,0.7-0.8,1-1.2c0.2-0.2,0.4-0.5,0.6-0.8c0.5-0.6,0.9-1.2,1.3-1.8c0.2-0.2,0.3-0.5,0.5-0.7
			c0.2-0.2,0.3-0.4,0.4-0.7c0.3-0.5,0.6-1,0.9-1.4c0.1-0.2,0.3-0.5,0.4-0.7c1.2-2.2,2.1-4.6,2.8-7.1c0.1-0.2,0.1-0.4,0.2-0.6
			c0.1-0.3,0.1-0.5,0.2-0.8c0.3-1.4,0.6-2.9,0.7-4.3c0-0.2,0-0.5,0.1-0.7c0.1-0.9,0.1-1.7,0.1-2.6V488.7c0-0.9,0-1.7-0.1-2.6
			C1001.6,485.8,1001.6,485.5,1001.6,485.3z M998.5,1048.8c0,17.5-14.2,31.7-31.7,31.7H211.4c-17.5,0-31.7-14.2-31.7-31.7V488.7
			c0-17.5,14.2-31.7,31.7-31.7h755.4c17.5,0,31.7,14.2,31.7,31.7V1048.8z"/>
		<path class="st16" d="M211.4,1089.7c-0.5,0-1.1,0-1.6,0C210.3,1089.7,210.8,1089.7,211.4,1089.7z"/>
		<path class="st16" d="M966.8,1089.7c0.5,0,1.1,0,1.6,0C967.9,1089.7,967.3,1089.7,966.8,1089.7z"/>
		<path d="M966.8,457H211.4c-17.5,0-31.7,14.2-31.7,31.7v560.1c0,17.5,14.2,31.7,31.7,31.7h755.4c17.5,0,31.7-14.2,31.7-31.7V488.7
			C998.5,471.2,984.3,457,966.8,457z M975.8,1048.8c0,5-4.1,9.1-9.1,9.1H211.4c-5,0-9.1-4.1-9.1-9.1V488.7c0-5,4.1-9.1,9.1-9.1
			h755.4c5,0,9.1,4.1,9.1,9.1V1048.8z"/>
	</g>
	<g>
		<defs>
			<path id="SVGID_00000138546287033211623010000003171450899253260165_" d="M972.8,1050.9H205.1c-1.5,0-2.8-1.2-2.8-2.8V482.2
				c0-1.5,1.2-2.8,2.8-2.8h767.7c1.5,0,2.8,1.2,2.8,2.8v565.9C975.6,1049.7,974.3,1050.9,972.8,1050.9z"/>
		</defs>
		<clipPath id="SVGID_00000116224637029137371000000003410190090912426645_">
			<use xlink:href="#SVGID_00000138546287033211623010000003171450899253260165_"  style="overflow:visible;"/>
		</clipPath>
	</g>
	<g>
		<defs>
			<path id="SVGID_00000170988705825156962810000012130705870375632306_" d="M976.1,1055.6H201.8c-3.2,0-5.9-2.6-5.9-5.9V480.6
				c0-3.2,2.6-5.9,5.9-5.9h774.3c3.2,0,5.9,2.6,5.9,5.9v569.2C982,1053,979.3,1055.6,976.1,1055.6z"/>
		</defs>
		<clipPath id="SVGID_00000104683779185944970520000009609224178102514817_">
			<use xlink:href="#SVGID_00000170988705825156962810000012130705870375632306_"  style="overflow:visible;"/>
		</clipPath>
		<g style="clip-path:url(#SVGID_00000104683779185944970520000009609224178102514817_);">
			
				<image style="overflow:visible;" width="1366" height="4041" xlink:href="FE3C7D.png"  transform="matrix(0.5772 0 0 0.5772 194.7003 474.6975)">
			</image>
		</g>
	</g>
	<g>
		<path id="XMLID_00000158008359163749903530000014109535515209871762_" class="st17" d="M1090.8,716.2c0-16-1.7-26-11.8-36
			c-9.8-9.6-24-9.9-28.9-9.9H886.7c-4.8,0-19,0.3-28.9,9.9c-10.2,10-11.8,19.9-11.8,36v401c0,16,1.7,26,11.8,36
			c9.8,9.6,24.1,9.9,28.9,9.9h163.4c4.8,0,19-0.3,28.9-9.9c10.2-10,11.8-19.9,11.8-36V716.2z"/>
		<path id="XMLID_00000080208941733006573640000010547539321678693539_" d="M886.7,1161.1c-14.8,0-23.1-5.1-27.5-9.4
			c-9.6-9.3-11.2-18.6-11.2-34.5v-401c0-16,1.7-25.2,11.2-34.5c4.4-4.3,12.7-9.4,27.4-9.4h163.4c14.8,0,23.1,5.1,27.5,9.4
			c9.6,9.3,11.2,18.6,11.2,34.5v401c0,16-1.7,25.2-11.2,34.5c-4.4,4.3-12.7,9.4-27.4,9.4H886.7z"/>
		<g>
			<defs>
				<path id="SVGID_00000169539688203409653790000015267873269704411822_" d="M1069.4,1148.3h-202c-3.6,0-6.6-2.9-6.6-6.6V691.6
					c0-3.6,2.9-6.6,6.6-6.6h202c3.6,0,6.6,2.9,6.6,6.6v450.2C1076,1145.4,1073,1148.3,1069.4,1148.3z"/>
			</defs>
			<clipPath id="SVGID_00000011730672362686297800000001386533564283731863_">
				<use xlink:href="#SVGID_00000169539688203409653790000015267873269704411822_"  style="overflow:visible;"/>
			</clipPath>
			
				<g transform="matrix(1 0 0 1 6.103516e-05 0)" style="clip-path:url(#SVGID_00000011730672362686297800000001386533564283731863_);">
				
					<image style="overflow:visible;" width="1125" height="2436" xlink:href="FE3C7B.png"  transform="matrix(0.2012 0 0 0.2012 853.6198 658.1465)">
				</image>
			</g>
		</g>
	</g>
</g>
</svg>
