<?xml version="1.0" encoding="utf-8"?>
<!-- Generator: Adobe Illustrator 26.0.1, SVG Export Plug-In . SVG Version: 6.00 Build 0)  -->
<svg version="1.1" id="Capa_1" xmlns="http://www.w3.org/2000/svg" xmlns:xlink="http://www.w3.org/1999/xlink" x="0px" y="0px"
	 viewBox="0 0 281 60" style="enable-background:new 0 0 281 60;" xml:space="preserve">
<style type="text/css">
	.st0{enable-background:new    ;}
	.st1{fill:#000248;}
	.st2{font-family:'DMSans-Bold';}
	.st3{font-size:20px;}
	.st4{fill:none;stroke:#702FFF;stroke-width:8;}
	.st5{fill-rule:evenodd;clip-rule:evenodd;fill:#702FFF;}
</style>
<g id="Logo" transform="translate(315.000000, 40.000000)">
	<g class="st0">
		<path class="st1" d="M-235-15.8c-1.4,0-2.5-0.4-3.3-1.2s-1.2-1.9-1.2-3.3h2.6c0,0.7,0.2,1.2,0.5,1.6c0.3,0.4,0.8,0.6,1.4,0.6
			c0.6,0,1.1-0.2,1.3-0.5c0.3-0.4,0.4-0.9,0.4-1.5v-10h2.6v10c0,1.4-0.4,2.4-1.1,3.2S-233.7-15.8-235-15.8z"/>
		<path class="st1" d="M-224.3-15.8c-1.2,0-2.2-0.4-2.9-1.2s-1-1.9-1-3.4v-5.6h2.5v5.4c0,0.9,0.2,1.5,0.5,2c0.3,0.5,0.9,0.7,1.6,0.7
			c0.7,0,1.3-0.3,1.8-0.8s0.7-1.2,0.7-2.1v-5.1h2.6v9.9h-2.3l-0.2-1.7c-0.3,0.6-0.8,1.1-1.3,1.4C-222.9-15.9-223.6-15.8-224.3-15.8z
			"/>
		<path class="st1" d="M-215.9-16v-14.4h2.6V-16H-215.9z"/>
		<path class="st1" d="M-209.3-27.5c-0.5,0-0.9-0.1-1.2-0.4c-0.3-0.3-0.4-0.6-0.4-1.1c0-0.4,0.1-0.8,0.4-1c0.3-0.3,0.7-0.4,1.2-0.4
			c0.5,0,0.8,0.1,1.1,0.4c0.3,0.3,0.4,0.6,0.4,1c0,0.4-0.1,0.8-0.4,1.1C-208.5-27.6-208.9-27.5-209.3-27.5z M-210.6-16v-9.9h2.6v9.9
			H-210.6z"/>
		<path class="st1" d="M-200.6-15.8c-1,0-1.8-0.2-2.6-0.7c-0.8-0.4-1.4-1-1.8-1.8s-0.7-1.7-0.7-2.7s0.2-1.9,0.7-2.7
			c0.5-0.8,1.1-1.4,1.8-1.8c0.8-0.4,1.6-0.7,2.6-0.7c0.9,0,1.8,0.2,2.6,0.7s1.4,1,1.8,1.8c0.4,0.8,0.7,1.7,0.7,2.7s-0.2,1.9-0.7,2.7
			c-0.4,0.8-1.1,1.4-1.8,1.8C-198.8-16-199.7-15.8-200.6-15.8z M-200.6-18c0.7,0,1.2-0.2,1.7-0.8s0.7-1.2,0.7-2.2
			c0-1-0.2-1.7-0.7-2.2s-1.1-0.8-1.7-0.8c-0.7,0-1.3,0.2-1.8,0.8c-0.5,0.5-0.7,1.2-0.7,2.2c0,1,0.2,1.7,0.7,2.2
			C-201.9-18.2-201.3-18-200.6-18z"/>
		<path class="st1" d="M-182.1-15.8c-1.4,0-2.6-0.3-3.6-0.9c-1-0.6-1.8-1.5-2.3-2.5c-0.5-1.1-0.8-2.3-0.8-3.8c0-1.4,0.3-2.7,0.8-3.8
			c0.5-1.1,1.3-1.9,2.3-2.6c1-0.6,2.2-0.9,3.6-0.9c1.7,0,3.1,0.4,4.1,1.2c1.1,0.8,1.7,2,2,3.5h-2.8c-0.2-0.8-0.5-1.4-1.1-1.8
			c-0.6-0.4-1.3-0.7-2.2-0.7c-1.3,0-2.3,0.4-3,1.3c-0.7,0.9-1.1,2.1-1.1,3.6c0,1.5,0.4,2.7,1.1,3.6c0.7,0.9,1.7,1.3,3,1.3
			c0.9,0,1.7-0.2,2.2-0.6c0.6-0.4,0.9-1,1.1-1.7h2.8c-0.3,1.4-0.9,2.6-2,3.4C-179-16.2-180.4-15.8-182.1-15.8z"/>
		<path class="st1" d="M-168.9-15.8c-1,0-1.9-0.2-2.7-0.6c-0.8-0.4-1.4-1-1.8-1.8c-0.4-0.8-0.7-1.7-0.7-2.7c0-1,0.2-1.9,0.6-2.7
			c0.4-0.8,1-1.4,1.8-1.9c0.8-0.4,1.7-0.7,2.7-0.7c1,0,1.8,0.2,2.6,0.6s1.3,1,1.8,1.8c0.4,0.7,0.6,1.6,0.6,2.5c0,0.1,0,0.3,0,0.5
			c0,0.2,0,0.3,0,0.5h-7.5c0.1,0.8,0.3,1.4,0.8,1.8c0.5,0.4,1.1,0.7,1.8,0.7c0.5,0,1-0.1,1.3-0.3c0.4-0.2,0.6-0.5,0.8-0.9h2.6
			c-0.2,0.6-0.5,1.2-0.9,1.7c-0.4,0.5-1,0.9-1.6,1.2S-168.1-15.8-168.9-15.8z M-168.9-24.1c-0.6,0-1.2,0.2-1.7,0.5s-0.8,0.9-0.9,1.6
			h4.9c0-0.7-0.3-1.2-0.7-1.6C-167.7-23.9-168.3-24.1-168.9-24.1z M-169.6-26.7v-1.8l4.5-2.4v2.1L-169.6-26.7z"/>
		<path class="st1" d="M-157.7-15.8c-0.9,0-1.7-0.1-2.3-0.4c-0.7-0.3-1.2-0.7-1.6-1.2s-0.6-1.1-0.7-1.8h2.6c0.1,0.4,0.3,0.7,0.7,1
			c0.4,0.3,0.8,0.4,1.4,0.4s1-0.1,1.2-0.3c0.3-0.2,0.4-0.5,0.4-0.8c0-0.4-0.2-0.7-0.6-0.9c-0.4-0.2-0.9-0.3-1.6-0.4
			c-0.4-0.1-0.9-0.2-1.3-0.3c-0.4-0.1-0.8-0.3-1.2-0.5c-0.4-0.2-0.7-0.5-0.9-0.8c-0.2-0.3-0.3-0.7-0.3-1.2c0-0.9,0.3-1.6,1-2.2
			c0.7-0.6,1.7-0.9,3-0.9c1.2,0,2.1,0.3,2.8,0.8s1.1,1.3,1.2,2.3h-2.4c-0.1-0.7-0.7-1.1-1.7-1.1c-0.5,0-0.9,0.1-1.1,0.3
			c-0.3,0.2-0.4,0.4-0.4,0.7c0,0.3,0.2,0.5,0.6,0.7c0.4,0.2,0.9,0.3,1.5,0.5c0.7,0.2,1.3,0.3,1.9,0.5s1,0.5,1.4,0.9s0.5,0.9,0.5,1.6
			c0,0.6-0.1,1.2-0.5,1.7c-0.3,0.5-0.8,0.9-1.4,1.2C-156.1-15.9-156.8-15.8-157.7-15.8z"/>
		<path class="st1" d="M-147.9-15.8c-0.9,0-1.6-0.1-2.1-0.4c-0.5-0.3-1-0.6-1.2-1.1c-0.3-0.5-0.4-1-0.4-1.5c0-0.9,0.4-1.7,1.1-2.2
			c0.7-0.6,1.8-0.9,3.2-0.9h2.5v-0.2c0-0.7-0.2-1.2-0.6-1.5c-0.4-0.3-0.9-0.5-1.4-0.5c-0.5,0-1,0.1-1.4,0.4s-0.6,0.6-0.7,1.1h-2.5
			c0.1-0.7,0.3-1.3,0.7-1.9c0.4-0.5,1-0.9,1.6-1.2c0.7-0.3,1.4-0.4,2.2-0.4c1.4,0,2.5,0.4,3.3,1.1c0.8,0.7,1.2,1.7,1.2,3v6.1h-2.2
			l-0.2-1.6c-0.3,0.5-0.7,1-1.2,1.3C-146.4-15.9-147.1-15.8-147.9-15.8z M-147.3-17.8c0.7,0,1.3-0.2,1.7-0.7
			c0.4-0.5,0.7-1.1,0.8-1.8h-2.2c-0.7,0-1.2,0.1-1.5,0.4c-0.3,0.2-0.4,0.5-0.4,0.9c0,0.4,0.1,0.7,0.4,0.9
			C-148.2-17.9-147.8-17.8-147.3-17.8z"/>
		<path class="st1" d="M-139.8-16v-9.9h2.3l0.2,1.9c0.4-0.6,0.9-1.2,1.5-1.5s1.3-0.6,2.2-0.6v2.7h-0.7c-0.6,0-1.1,0.1-1.5,0.3
			c-0.4,0.2-0.8,0.5-1,0.9c-0.2,0.4-0.4,1-0.4,1.8v4.5H-139.8z"/>
	</g>
	<text transform="matrix(1 0 0 1 -133.1415 -16)" class="st1 st2 st3"> </text>
	<g class="st0">
		<path class="st1" d="M-237.5,9.5V-3.1h7.7v1.2h-6.2v4.4h5.2v1.2h-5.2v5.7H-237.5z"/>
		<path class="st1" d="M-228,9.5V0.6h1.4l0.1,1.7c0.3-0.6,0.7-1.1,1.3-1.4c0.6-0.3,1.3-0.5,2.1-0.5v1.6h-0.4c-0.5,0-1,0.1-1.5,0.3
			c-0.4,0.2-0.8,0.5-1.1,0.9c-0.3,0.4-0.4,1.1-0.4,1.8v4.5H-228z"/>
		<path class="st1" d="M-217.7,9.7c-0.8,0-1.6-0.2-2.3-0.6c-0.7-0.4-1.2-0.9-1.6-1.6c-0.4-0.7-0.6-1.5-0.6-2.5s0.2-1.8,0.6-2.5
			c0.4-0.7,0.9-1.2,1.6-1.6c0.7-0.4,1.4-0.6,2.3-0.6c0.8,0,1.6,0.2,2.3,0.6c0.7,0.4,1.2,0.9,1.6,1.6c0.4,0.7,0.6,1.5,0.6,2.5
			s-0.2,1.8-0.6,2.5c-0.4,0.7-0.9,1.2-1.6,1.6C-216.1,9.5-216.9,9.7-217.7,9.7z M-217.7,8.4c0.5,0,1-0.1,1.4-0.4
			c0.4-0.3,0.8-0.6,1.1-1.1c0.3-0.5,0.4-1.1,0.4-1.9s-0.1-1.4-0.4-1.9s-0.6-0.9-1.1-1.1c-0.4-0.3-0.9-0.4-1.4-0.4
			c-0.5,0-1,0.1-1.4,0.4s-0.8,0.6-1.1,1.1c-0.3,0.5-0.4,1.1-0.4,1.9s0.1,1.4,0.4,1.9c0.3,0.5,0.6,0.9,1.1,1.1S-218.2,8.4-217.7,8.4z
			"/>
		<path class="st1" d="M-211.1,9.5V0.6h1.4l0.1,1.6c0.3-0.6,0.7-1,1.2-1.3s1.2-0.5,1.8-0.5c1.1,0,1.9,0.3,2.5,1
			c0.6,0.6,0.9,1.6,0.9,3v5.2h-1.5V4.4c0-1.9-0.8-2.8-2.3-2.8c-0.8,0-1.4,0.3-1.9,0.8c-0.5,0.6-0.8,1.4-0.8,2.4v4.6H-211.1z"/>
		<path class="st1" d="M-197.3,9.5c-0.8,0-1.5-0.2-1.9-0.6c-0.5-0.4-0.7-1.1-0.7-2.1V1.8h-1.5V0.6h1.5l0.2-2.1h1.3v2.1h2.6v1.3h-2.6
			v4.9c0,0.6,0.1,0.9,0.3,1.1c0.2,0.2,0.6,0.3,1.2,0.3h0.9v1.3H-197.3z"/>
		<path class="st1" d="M-194.1,4.9V3.6h7.1v1.3H-194.1z"/>
		<path class="st1" d="M-184.6,9.5V-3.1h7.8v1.2h-6.3v4.4h5.7v1.2h-5.7v4.5h6.3v1.2H-184.6z"/>
		<path class="st1" d="M-174.5,9.5V0.6h1.4l0.1,1.6c0.3-0.6,0.7-1,1.2-1.3s1.2-0.5,1.8-0.5c1.1,0,1.9,0.3,2.5,1
			c0.6,0.6,0.9,1.6,0.9,3v5.2h-1.5V4.4c0-1.9-0.8-2.8-2.3-2.8c-0.8,0-1.4,0.3-1.9,0.8c-0.5,0.6-0.8,1.4-0.8,2.4v4.6H-174.5z"/>
		<path class="st1" d="M-160.1,9.7c-0.9,0-1.7-0.2-2.3-0.6c-0.7-0.4-1.2-1-1.5-1.7c-0.4-0.7-0.5-1.5-0.5-2.4c0-0.9,0.2-1.7,0.6-2.4
			s0.9-1.3,1.5-1.7c0.7-0.4,1.4-0.6,2.3-0.6c0.7,0,1.4,0.1,1.9,0.4c0.6,0.3,1,0.7,1.3,1.3v-5.5h1.5v13h-1.4l-0.1-1.5
			c-0.3,0.4-0.7,0.8-1.2,1.2C-158.7,9.5-159.3,9.7-160.1,9.7z M-160,8.4c0.6,0,1.1-0.1,1.6-0.4c0.5-0.3,0.8-0.7,1.1-1.2
			s0.4-1.1,0.4-1.8s-0.1-1.3-0.4-1.8c-0.3-0.5-0.6-0.9-1.1-1.2c-0.5-0.3-1-0.4-1.6-0.4c-0.6,0-1.1,0.1-1.6,0.4
			c-0.5,0.3-0.8,0.7-1.1,1.2c-0.3,0.5-0.4,1.1-0.4,1.8s0.1,1.3,0.4,1.8c0.3,0.5,0.6,0.9,1.1,1.2C-161.1,8.3-160.6,8.4-160,8.4z"/>
		<path class="st1" d="M-148,9.5V-3.1h3.9c2.2,0,3.9,0.6,4.9,1.7s1.6,2.7,1.6,4.6c0,1.9-0.5,3.5-1.6,4.6s-2.7,1.7-4.9,1.7H-148z
			 M-146.5,8.2h2.3c1.2,0,2.2-0.2,2.9-0.6c0.7-0.4,1.2-1,1.6-1.7c0.3-0.8,0.5-1.6,0.5-2.7c0-1.1-0.2-2-0.5-2.7
			c-0.3-0.8-0.8-1.3-1.6-1.7c-0.7-0.4-1.7-0.6-2.9-0.6h-2.3V8.2z"/>
		<path class="st1" d="M-131.6,9.7c-0.9,0-1.6-0.2-2.3-0.6c-0.7-0.4-1.2-0.9-1.6-1.6C-135.8,6.8-136,6-136,5c0-0.9,0.2-1.8,0.6-2.5
			s0.9-1.2,1.6-1.6c0.7-0.4,1.4-0.6,2.3-0.6c0.9,0,1.6,0.2,2.2,0.6c0.6,0.4,1.1,0.9,1.4,1.5c0.3,0.6,0.5,1.3,0.5,2.1
			c0,0.1,0,0.3,0,0.4c0,0.1,0,0.3,0,0.5h-7.1c0,0.7,0.2,1.3,0.5,1.7c0.3,0.5,0.6,0.8,1.1,1c0.4,0.2,0.9,0.3,1.4,0.3
			c0.6,0,1.1-0.1,1.6-0.4s0.7-0.7,0.9-1.2h1.5c-0.2,0.8-0.7,1.5-1.4,2.1S-130.5,9.7-131.6,9.7z M-131.6,1.6c-0.7,0-1.4,0.2-1.9,0.7
			c-0.6,0.4-0.9,1.1-1,1.9h5.6c0-0.8-0.3-1.4-0.8-1.9C-130.2,1.9-130.8,1.6-131.6,1.6z"/>
		<path class="st1" d="M-123.1,9.5l-3.4-8.9h1.6l2.7,7.5l2.7-7.5h1.5l-3.4,8.9H-123.1z"/>
		<path class="st1" d="M-112.8,9.7c-0.9,0-1.6-0.2-2.3-0.6s-1.2-0.9-1.6-1.6c-0.4-0.7-0.6-1.5-0.6-2.5c0-0.9,0.2-1.8,0.6-2.5
			s0.9-1.2,1.6-1.6c0.7-0.4,1.4-0.6,2.3-0.6c0.9,0,1.6,0.2,2.2,0.6c0.6,0.4,1.1,0.9,1.4,1.5c0.3,0.6,0.5,1.3,0.5,2.1
			c0,0.1,0,0.3,0,0.4c0,0.1,0,0.3,0,0.5h-7.1c0,0.7,0.2,1.3,0.5,1.7s0.6,0.8,1.1,1c0.4,0.2,0.9,0.3,1.4,0.3c0.6,0,1.1-0.1,1.6-0.4
			s0.7-0.7,0.9-1.2h1.5c-0.2,0.8-0.7,1.5-1.4,2.1C-110.8,9.4-111.7,9.7-112.8,9.7z M-112.8,1.6c-0.7,0-1.4,0.2-1.9,0.7
			c-0.6,0.4-0.9,1.1-1,1.9h5.6c0-0.8-0.3-1.4-0.8-1.9S-112,1.6-112.8,1.6z"/>
		<path class="st1" d="M-106.5,9.5v-13h1.5v13H-106.5z"/>
		<path class="st1" d="M-98.5,9.7c-0.8,0-1.6-0.2-2.3-0.6s-1.2-0.9-1.6-1.6s-0.6-1.5-0.6-2.5s0.2-1.8,0.6-2.5
			c0.4-0.7,0.9-1.2,1.6-1.6c0.7-0.4,1.4-0.6,2.3-0.6c0.8,0,1.6,0.2,2.3,0.6c0.7,0.4,1.2,0.9,1.6,1.6C-94.2,3.3-94,4.1-94,5
			s-0.2,1.8-0.6,2.5s-0.9,1.2-1.6,1.6S-97.6,9.7-98.5,9.7z M-98.5,8.4c0.5,0,1-0.1,1.4-0.4s0.8-0.6,1.1-1.1s0.4-1.1,0.4-1.9
			s-0.1-1.4-0.4-1.9C-96.2,2.7-96.6,2.3-97,2c-0.4-0.3-0.9-0.4-1.4-0.4c-0.5,0-1,0.1-1.4,0.4c-0.4,0.3-0.8,0.6-1.1,1.1
			s-0.4,1.1-0.4,1.9s0.1,1.4,0.4,1.9s0.6,0.9,1.1,1.1C-99.5,8.3-99,8.4-98.5,8.4z"/>
		<path class="st1" d="M-91.9,13.5V0.6h1.4l0.1,1.5c0.3-0.4,0.7-0.8,1.2-1.2c0.5-0.3,1.2-0.5,2-0.5c0.9,0,1.7,0.2,2.3,0.6
			c0.7,0.4,1.2,1,1.5,1.7c0.4,0.7,0.5,1.5,0.5,2.4c0,0.9-0.2,1.7-0.5,2.4s-0.9,1.3-1.5,1.7c-0.7,0.4-1.4,0.6-2.3,0.6
			c-0.7,0-1.4-0.2-2-0.5s-1-0.7-1.3-1.3v5.5H-91.9z M-87.3,8.4c0.6,0,1.1-0.1,1.6-0.4c0.5-0.3,0.8-0.7,1.1-1.2s0.4-1.1,0.4-1.8
			s-0.1-1.3-0.4-1.8c-0.3-0.5-0.6-0.9-1.1-1.2c-0.5-0.3-1-0.4-1.6-0.4s-1.1,0.1-1.6,0.4c-0.5,0.3-0.8,0.7-1.1,1.2
			c-0.3,0.5-0.4,1.1-0.4,1.8s0.1,1.3,0.4,1.8s0.6,0.9,1.1,1.2C-88.4,8.3-87.9,8.4-87.3,8.4z"/>
		<path class="st1" d="M-80.6,9.5V0.6h1.4l0.1,1.3c0.3-0.5,0.7-0.9,1.2-1.1c0.5-0.3,1-0.4,1.6-0.4c0.7,0,1.3,0.1,1.8,0.4
			c0.5,0.3,0.9,0.7,1.2,1.3c0.3-0.5,0.7-1,1.3-1.3c0.5-0.3,1.1-0.5,1.8-0.5c1.1,0,1.9,0.3,2.6,1c0.6,0.6,1,1.6,1,3v5.2h-1.5V4.4
			c0-0.9-0.2-1.6-0.6-2.1c-0.4-0.5-0.9-0.7-1.6-0.7c-0.7,0-1.3,0.3-1.8,0.8c-0.5,0.6-0.7,1.4-0.7,2.4v4.6h-1.5V4.4
			c0-0.9-0.2-1.6-0.6-2.1c-0.4-0.5-0.9-0.7-1.6-0.7c-0.7,0-1.3,0.3-1.8,0.8c-0.5,0.6-0.7,1.4-0.7,2.4v4.6H-80.6z"/>
		<path class="st1" d="M-60.5,9.7c-0.9,0-1.6-0.2-2.3-0.6s-1.2-0.9-1.6-1.6C-64.7,6.8-64.9,6-64.9,5c0-0.9,0.2-1.8,0.6-2.5
			s0.9-1.2,1.6-1.6c0.7-0.4,1.4-0.6,2.3-0.6c0.9,0,1.6,0.2,2.2,0.6c0.6,0.4,1.1,0.9,1.4,1.5c0.3,0.6,0.5,1.3,0.5,2.1
			c0,0.1,0,0.3,0,0.4c0,0.1,0,0.3,0,0.5h-7.1c0,0.7,0.2,1.3,0.5,1.7s0.6,0.8,1.1,1c0.4,0.2,0.9,0.3,1.4,0.3c0.6,0,1.1-0.1,1.6-0.4
			s0.7-0.7,0.9-1.2h1.5c-0.2,0.8-0.7,1.5-1.4,2.1C-58.5,9.4-59.4,9.7-60.5,9.7z M-60.5,1.6c-0.7,0-1.4,0.2-1.9,0.7
			c-0.6,0.4-0.9,1.1-1,1.9h5.6c0-0.8-0.3-1.4-0.8-1.9S-59.7,1.6-60.5,1.6z"/>
		<path class="st1" d="M-54.2,9.5V0.6h1.4l0.1,1.6c0.3-0.6,0.7-1,1.2-1.3s1.2-0.5,1.8-0.5c1.1,0,1.9,0.3,2.5,1
			c0.6,0.6,0.9,1.6,0.9,3v5.2h-1.5V4.4c0-1.9-0.8-2.8-2.3-2.8c-0.8,0-1.4,0.3-1.9,0.8c-0.5,0.6-0.8,1.4-0.8,2.4v4.6H-54.2z"/>
		<path class="st1" d="M-40.4,9.5c-0.8,0-1.5-0.2-1.9-0.6C-42.8,8.5-43,7.8-43,6.8V1.8h-1.5V0.6h1.5l0.2-2.1h1.3v2.1h2.6v1.3h-2.6
			v4.9c0,0.6,0.1,0.9,0.3,1.1c0.2,0.2,0.6,0.3,1.2,0.3h0.9v1.3H-40.4z"/>
	</g>
	<g id="Favicon">
		<g id="Group-3" transform="translate(15.000000, 11.000000)">
			<circle id="Oval" class="st4" cx="-299" cy="-22" r="20"/>
			<circle id="Oval-Copy" class="st5" cx="-299" cy="-22" r="7"/>
		</g>
	</g>
</g>
</svg>
