<?xml version="1.0" encoding="utf-8"?>
<!-- Generator: Adobe Illustrator 26.0.1, SVG Export Plug-In . SVG Version: 6.00 Build 0)  -->
<svg version="1.0" xmlns="http://www.w3.org/2000/svg" xmlns:xlink="http://www.w3.org/1999/xlink" x="0px" y="0px"
	 viewBox="0 0 500 500" style="enable-background:new 0 0 500 500;" xml:space="preserve">
<style type="text/css">
	.st0{display:none;}
	.st1{display:inline;fill:#EBEBEB;}
	.st2{opacity:0.41;}
	.st3{fill:#C9D7FD;}
	.st4{opacity:0.88;}
	.st5{opacity:0.31;fill:#C9D7FD;}
	.st6{fill:#A79AD6;}
	.st7{fill:#2E3A61;}
	.st8{fill:#FFFFFF;}
	.st9{fill:#ECF0F5;}
	.st10{opacity:0.33;fill:#A79AD6;}
	.st11{fill:#E3A6B1;}
	.st12{opacity:0.29;fill:#2E3A61;}
	.st13{opacity:0.35;fill:#ECF0F5;}
</style>
<g id="Background_Complete">
</g>
<g id="Background_Simple" class="st0">
	<path class="st1" d="M433.4,94.4l-2.5-4.1c-20.1-32.6-56.2-52.4-94.4-50.4c-5.4,0.3-10.7,1-16,2.1c-35.2,7.4-65.8,33.7-78.5,67.3
		c-7.5,19.8-9.5,42.6-23.7,58.3c-18.4,20.4-49.7,21.1-77.2,20.2c-27.5-0.8-58.8-0.1-77.2,20.4c-11.5,12.9-15.1,31.1-14.2,48.3
		c2.5,45.6,34.6,86.3,75.5,106.6c40.9,20.3,89,22.1,133.8,13.2c62.7-12.5,122.3-46.8,158.2-99.7C453,223.7,462.1,151.6,433.4,94.4z"
		/>
	<path class="st1" d="M179.6,105.7c-9.9-9.9-27.3-16.8-39.1-9.3l1.7-0.9c-12.5,6.2-20.6,20.4-19.3,34.3c1.3,13.9,12,26.5,25.6,29.8
		c13.6,3.3,29-3.2,36-15.2C191.5,132.2,189.5,115.5,179.6,105.7z"/>
</g>
<g id="Floor">
</g>
<g id="Screens">
</g>
<g id="Character">
</g>
<g id="Plant">
</g>
<g id="Devices">
</g>
<g id="Desk">
	<g>
		<g>
			<g class="st2">
				<g>
					<path class="st3" d="M491.5,305.8c0.5-7.9,0.3-15.8-0.6-23.7c-4.2-36.9-23.1-71.7-51-96.2c-9.9-8.8-21.3-16.6-27.7-28.2
						c-10.9-19.5-10.1-41.8-23.6-61.1c-13.5-19.2-33.3-34.3-55.5-42c-66.3-23-159.2,14.4-150.8,94.4c0,0.3,0.1,0.7,0.1,1.2
						c1.1,16.6-11.9,30.6-28.5,31c-61.2,1.5-113.9,48.6-125.1,108.4c-7.2,38.4,4.6,80.6,32.7,107.8c21,20.3,49.1,31.4,77.3,39.1
						c56.5,15.4,115.9,18.6,174.2,12.7c54.5-5.5,112-21.2,147.3-63.1C479,363.7,489.8,335,491.5,305.8z"/>
				</g>
			</g>
			<g class="st4">
				<g>
					<path class="st3" d="M441.1,309.6c0.4-6.2,0.2-12.4-0.5-18.5c-3.3-28.9-18.1-56.2-39.9-75.4c-7.8-6.9-16.6-13-21.7-22.1
						c-8.5-15.3-7.9-32.8-18.5-47.8c-10.6-15.1-26.1-26.8-43.5-32.9c-52-18-124.7,11.3-118.2,73.9c0,0.2,0,0.6,0.1,1
						c0.9,13-9.3,23.9-22.3,24.2c-47.9,1.1-89.2,38.1-98,84.9c-5.7,30.1,3.6,63.1,25.6,84.4c16.4,15.9,38.5,24.6,60.6,30.6
						c44.3,12,90.8,14.6,136.4,10c42.7-4.3,87.8-16.6,115.4-49.4C431.4,355,439.8,332.5,441.1,309.6z"/>
				</g>
			</g>
			<ellipse transform="matrix(0.2307 -0.973 0.973 0.2307 251.7259 533.6688)" class="st5" cx="463.4" cy="107.6" rx="15" ry="15"/>
			
				<ellipse transform="matrix(0.7071 -0.7071 0.7071 0.7071 -24.4006 121.6531)" class="st5" cx="134.6" cy="90.3" rx="17.4" ry="17.4"/>
			<circle class="st5" cx="30.7" cy="423.7" r="22.4"/>
		</g>
		<g>
			<g>
				<circle class="st6" cx="207.6" cy="167.4" r="79.4"/>
				<path class="st7" d="M262.7,224.6c-0.2,0-0.4-0.1-0.5-0.2c-0.3-0.3-0.3-0.8,0-1.1c14.9-14.9,23-34.6,23-55.6
					c0-21-8.2-40.8-23-55.6c-14.9-14.9-34.6-23-55.6-23s-40.8,8.2-55.6,23c-0.3,0.3-0.8,0.3-1.1,0c-0.3-0.3-0.3-0.8,0-1.1
					c15.1-15.1,35.3-23.5,56.7-23.5s41.6,8.3,56.7,23.5c15.1,15.1,23.5,35.3,23.5,56.7s-8.3,41.6-23.5,56.7
					C263.1,224.5,262.9,224.6,262.7,224.6z"/>
				<circle class="st8" cx="207.6" cy="167.4" r="60.5"/>
				<path class="st7" d="M207.6,228.6c-33.8,0-61.2-27.5-61.2-61.2s27.5-61.2,61.2-61.2c0.4,0,0.8,0.3,0.8,0.8s-0.3,0.8-0.8,0.8
					c-32.9,0-59.7,26.8-59.7,59.7c0,32.9,26.8,59.7,59.7,59.7c0.4,0,0.8,0.3,0.8,0.8C208.3,228.2,208,228.6,207.6,228.6z"/>
				<path class="st7" d="M223.2,178.9h-16.4c-3.4,0-6.1-2.7-6.1-6.1V150c0-2.9,2.4-5.3,5.3-5.3c2.9,0,5.3,2.4,5.3,5.3v18.3h11.9
					c2.9,0,5.3,2.4,5.3,5.3S226.2,178.9,223.2,178.9z"/>
			</g>
		</g>
		<g>
			<path class="st7" d="M84.2,194.9l85.6,85.6c16.7,16.7,43.9,16.7,60.6,0l10.2-10.2c3.9-3.9,3.9-10.1,0-14l-34.9-34.9
				c-3.9-3.9-10.1-3.9-14,0l-17.5,17.5c-1.4,1.4-3.6,1.4-4.9,0L127,196.5c-1.3-1.3-1.3-3.5,0-4.9l17.2-17.2c3.9-3.9,3.9-10.1,0-14
				l-35.9-35.9c-3.8-3.8-10-3.9-13.9-0.1l-9.7,9.4C67.5,150.4,67.3,178,84.2,194.9z"/>
			<g>
				<path class="st9" d="M86.9,135.5l48.1,48.1l1.6-1.6l7.6-7.6c3.9-3.9,3.9-10.1,0-14l-35.9-35.9c-3.8-3.8-10-3.9-13.9-0.1
					l-9.7,9.4L86.9,135.5z"/>
				<path class="st7" d="M135,184.7l-48.6-48.6l-2.8-2.2l10.3-10c4.2-4,10.8-4,14.9,0.1l35.9,35.9c4.2,4.2,4.2,10.9,0,15.1
					L135,184.7z M85.9,133.7l1.5,1.2l47.6,47.6l8.7-8.7c1.7-1.7,2.7-4,2.7-6.5c0-2.4-1-4.7-2.7-6.5l-35.9-35.9
					c-3.5-3.5-9.2-3.5-12.8-0.1L85.9,133.7z"/>
			</g>
			<g>
				<path class="st9" d="M184.7,231.7l48.1,48.1l1.6-1.6l7.6-7.6c3.9-3.9,3.9-10.1,0-14l-35.9-35.9c-3.8-3.8-10-3.9-13.9-0.1
					l-9.7,9.4L184.7,231.7z"/>
				<path class="st7" d="M232.8,280.9l-48.6-48.6l-2.8-2.2l10.3-10c4.2-4,10.9-3.9,14.9,0.1l35.9,35.9c2,2,3.1,4.7,3.1,7.5
					s-1.1,5.5-3.1,7.5L232.8,280.9z M183.7,229.9l1.5,1.2l47.6,47.6l8.7-8.7c1.7-1.7,2.7-4,2.7-6.5c0-2.4-0.9-4.7-2.7-6.5
					l-35.9-35.9c-3.5-3.5-9.2-3.5-12.8-0.1L183.7,229.9z"/>
			</g>
			<g>
				<line class="st9" x1="90.6" y1="129.9" x2="119.9" y2="159.2"/>
				<path class="st7" d="M119.9,159.9c-0.2,0-0.4-0.1-0.5-0.2l-29.3-29.3c-0.3-0.3-0.3-0.8,0-1.1c0.3-0.3,0.8-0.3,1.1,0l29.3,29.3
					c0.3,0.3,0.3,0.8,0,1.1C120.3,159.8,120.1,159.9,119.9,159.9z"/>
			</g>
			<g>
				<line class="st9" x1="207.1" y1="246.4" x2="236.4" y2="275.7"/>
				<path class="st7" d="M236.4,276.5c-0.2,0-0.4-0.1-0.5-0.2l-29.3-29.3c-0.3-0.3-0.3-0.8,0-1.1c0.3-0.3,0.8-0.3,1.1,0l29.3,29.3
					c0.3,0.3,0.3,0.8,0,1.1C236.8,276.4,236.6,276.5,236.4,276.5z"/>
			</g>
		</g>
		<g>
			<path class="st7" d="M365,426.2l-112.2-16.6c-12.7-1.9-21.4-13.7-19.6-26.4l40.2-272c1.9-12.7,13.7-21.4,26.4-19.6l112.2,16.6
				c12.7,1.9,21.4,13.7,19.6,26.4l-40.2,272C389.5,419.4,377.7,428.1,365,426.2z"/>
			
				<rect x="203.1" y="185.4" transform="matrix(0.1463 -0.9892 0.9892 0.1463 31.1237 547.7206)" class="st9" width="259.7" height="140.8"/>
			
				<rect x="340.7" y="66.6" transform="matrix(0.1463 -0.9892 0.9892 0.1463 163.648 463.6848)" class="st6" width="19.5" height="140.8"/>
			<path class="st9" d="M311.6,409.3c-0.4,0-0.9,0-1.3-0.1c-2.4-0.4-4.5-1.6-6-3.6c-1.4-2-2-4.3-1.7-6.8c0.4-2.4,1.6-4.5,3.6-6
				c1.9-1.4,4.4-2.1,6.7-1.7c2.4,0.4,4.5,1.6,6,3.6c1.4,1.9,2,4.3,1.7,6.7C319.9,406.1,316,409.3,311.6,409.3z M311.5,392.6
				c-1.6,0-3.2,0.5-4.5,1.5c-1.6,1.2-2.7,3-3,5c-0.3,2,0.2,4,1.4,5.6c1.2,1.6,3,2.7,5,3c4.1,0.6,8-2.3,8.6-6.4c0.3-2-0.2-4-1.4-5.6
				c-1.2-1.6-3-2.7-5-3C312.3,392.7,311.9,392.6,311.5,392.6z"/>
			<path class="st9" d="M331.7,114.6c-0.1,0-0.3,0-0.4,0c-0.8-0.1-1.5-0.5-1.9-1.1c-0.5-0.6-0.7-1.4-0.5-2.2
				c0.1-0.8,0.5-1.5,1.1-1.9c0.6-0.5,1.4-0.7,2.2-0.5c0.8,0.1,1.5,0.5,1.9,1.1c0.5,0.6,0.7,1.4,0.5,2.2v0
				C334.4,113.6,333.1,114.6,331.7,114.6z M331.7,110.3c-0.3,0-0.6,0.1-0.8,0.3c-0.3,0.2-0.5,0.6-0.6,0.9c-0.1,0.4,0,0.7,0.3,1
				c0.2,0.3,0.6,0.5,0.9,0.6c0.4,0.1,0.7,0,1-0.3c0.3-0.2,0.5-0.6,0.6-0.9l0,0c0.1-0.4,0-0.7-0.3-1c-0.2-0.3-0.6-0.5-0.9-0.6
				C331.8,110.3,331.7,110.3,331.7,110.3z"/>
			<path class="st9" d="M376.9,121.3c-0.1,0-0.3,0-0.4,0L341,116c-0.8-0.1-1.5-0.5-1.9-1.1c-0.5-0.6-0.7-1.4-0.5-2.2
				s0.5-1.5,1.1-1.9c0.6-0.5,1.4-0.7,2.2-0.5l35.5,5.3c0.8,0.1,1.5,0.5,1.9,1.1c0.5,0.6,0.7,1.4,0.5,2.2c-0.1,0.8-0.5,1.5-1.1,1.9
				C378.2,121.1,377.6,121.3,376.9,121.3z M341.4,111.7c-0.7,0-1.3,0.5-1.4,1.2c-0.1,0.4,0,0.7,0.3,1c0.2,0.3,0.6,0.5,0.9,0.6
				l35.5,5.3c0.8,0.1,1.5-0.4,1.6-1.2c0.1-0.4,0-0.7-0.3-1c-0.2-0.3-0.6-0.5-0.9-0.6l-35.5-5.3C341.5,111.7,341.5,111.7,341.4,111.7
				z"/>
			<path class="st3" d="M384.1,316L287,301.6c-1.6-0.2-3.1,0.9-3.3,2.4l-3.7,25.2c-0.2,1.6,0.9,3.1,2.4,3.3l83.1,12.3l8.6,11.8
				l1.5-10.3l4,0.6c1.6,0.2,3.1-0.9,3.3-2.4l3.7-25.2C386.8,317.7,385.7,316.2,384.1,316z"/>
			<path class="st7" d="M365.5,345.6c0,0-0.1,0-0.1,0l-83.1-12.3c-1-0.1-1.8-0.7-2.4-1.4c-0.6-0.8-0.8-1.7-0.7-2.7l3.7-25.2
				c0.3-2,2.2-3.4,4.2-3.1l22.5,3.3c0.4,0.1,0.7,0.4,0.6,0.9c-0.1,0.4-0.5,0.7-0.9,0.6l-22.5-3.3c-1.2-0.2-2.3,0.6-2.4,1.8
				l-3.7,25.2c-0.1,0.6,0.1,1.1,0.4,1.6c0.3,0.5,0.8,0.8,1.4,0.8l83.1,12.3c0.4,0.1,0.7,0.4,0.6,0.9
				C366.2,345.3,365.8,345.6,365.5,345.6z"/>
			<path class="st3" d="M399.6,211.5l-97.2-14.4c-1.6-0.2-3.1,0.9-3.3,2.4l-3.7,25.2c-0.2,1.6,0.9,3.1,2.4,3.3l83.1,12.3l8.6,11.8
				l1.5-10.3l4,0.6c1.6,0.2,3.1-0.9,3.3-2.4l3.7-25.2C402.3,213.2,401.2,211.8,399.6,211.5z"/>
			<path class="st7" d="M389.9,254.1l-9.5-13.1l-82.8-12.2c-2-0.3-3.4-2.2-3.1-4.2c0.1-0.4,0.4-0.7,0.9-0.6c0.4,0.1,0.7,0.4,0.6,0.9
				c-0.1,0.6,0.1,1.1,0.4,1.6c0.3,0.5,0.8,0.8,1.4,0.8l83.4,12.3l7.7,10.6l1.4-9.2l4.8,0.7c0.6,0.1,1.1-0.1,1.6-0.4
				c0.5-0.3,0.8-0.8,0.8-1.4l2.5-16.8c0.1-0.4,0.4-0.7,0.9-0.6c0.4,0.1,0.7,0.4,0.6,0.9l-2.5,16.8c-0.1,1-0.7,1.8-1.4,2.4
				c-0.8,0.6-1.8,0.8-2.7,0.7l-3.3-0.5L389.9,254.1z"/>
			<path class="st6" d="M276.6,244l97.2,14.4c1.6,0.2,2.7,1.7,2.4,3.3l-3.7,25.2c-0.2,1.6-1.7,2.7-3.3,2.4L286.1,277l-11.6,8.8
				l1.5-10.3l-4-0.6c-1.6-0.2-2.7-1.7-2.4-3.3l3.7-25.2C273.5,244.9,275,243.8,276.6,244z"/>
			<path class="st7" d="M369.6,290.1c-0.2,0-0.4,0-0.5,0l-51.9-7.7c-0.4-0.1-0.7-0.4-0.6-0.9c0.1-0.4,0.4-0.7,0.9-0.6l51.9,7.7
				c0.6,0.1,1.1-0.1,1.6-0.4c0.5-0.3,0.8-0.8,0.8-1.4l3.7-25.2c0.2-1.2-0.6-2.3-1.8-2.4c-0.4-0.1-0.7-0.4-0.6-0.9
				c0.1-0.4,0.4-0.7,0.9-0.6c2,0.3,3.4,2.2,3.1,4.1l-3.7,25.2c-0.1,1-0.7,1.8-1.4,2.4C371.1,289.9,370.4,290.1,369.6,290.1z"/>
			
				<rect x="303.7" y="302" transform="matrix(0.1463 -0.9892 0.9892 0.1463 -98.9691 630.2147)" class="st8" width="23.9" height="140.8"/>
			<path class="st3" d="M268.3,365.2c-0.7,4.6-5,7.8-9.6,7.1c-4.6-0.7-7.8-5-7.1-9.6c0.7-4.6,5-7.8,9.6-7.1
				C265.8,356.3,269,360.6,268.3,365.2z"/>
			<path class="st10" d="M371,388.2c-0.4,0-0.7,0-1.1-0.1l-90.3-13.4c-2-0.3-3.8-1.3-5-3c-1.2-1.6-1.7-3.6-1.4-5.6
				c0.6-4.1,4.5-7,8.6-6.4l90.3,13.4c4.1,0.6,7,4.5,6.4,8.6C378,385.5,374.7,388.2,371,388.2z M370.2,386.6c3.3,0.5,6.4-1.8,6.9-5.1
				c0.2-1.6-0.2-3.2-1.1-4.5c-1-1.3-2.4-2.1-4-2.4l-90.3-13.4c-3.3-0.5-6.4,1.8-6.9,5.1c-0.2,1.6,0.2,3.2,1.1,4.5
				c1,1.3,2.4,2.1,4,2.4L370.2,386.6z"/>
			<path class="st8" d="M290.9,130.9c-0.1,0-0.3,0-0.4,0c-1.6-0.2-2.7-1.8-2.5-3.4c0.1-0.8,0.5-1.5,1.2-2c0.6-0.5,1.4-0.7,2.2-0.6
				c1.6,0.2,2.7,1.8,2.5,3.4l0,0C293.6,129.9,292.4,130.9,290.9,130.9z M290.9,126.5c-0.3,0-0.6,0.1-0.9,0.3c-0.3,0.2-0.5,0.6-0.6,1
				c-0.1,0.4,0,0.8,0.3,1.1c0.2,0.3,0.6,0.5,1,0.6c0.8,0.1,1.5-0.4,1.7-1.2l0,0c0.1-0.4,0-0.8-0.3-1.1c-0.2-0.3-0.6-0.5-1-0.6
				C291.1,126.5,291,126.5,290.9,126.5z"/>
			<path class="st8" d="M299.1,132.2c-0.1,0-0.3,0-0.4,0c-1.6-0.2-2.7-1.8-2.5-3.4c0.2-1.6,1.8-2.7,3.4-2.5c0.8,0.1,1.5,0.5,2,1.2
				c0.5,0.6,0.7,1.4,0.6,2.2c-0.1,0.8-0.5,1.5-1.2,2C300.4,132,299.8,132.2,299.1,132.2z M299.1,127.7c-0.7,0-1.3,0.5-1.4,1.2
				c-0.1,0.4,0,0.8,0.3,1.1c0.2,0.3,0.6,0.5,1,0.6c0.4,0.1,0.8,0,1.1-0.3c0.3-0.2,0.5-0.6,0.6-1l0,0c0.1-0.4,0-0.8-0.3-1.1
				c-0.2-0.3-0.6-0.5-1-0.6C299.3,127.7,299.2,127.7,299.1,127.7z"/>
			<path class="st8" d="M307.2,133.3c-0.1,0-0.3,0-0.4,0c-1.6-0.2-2.7-1.8-2.5-3.4c0.2-1.6,1.8-2.7,3.4-2.5c1.6,0.2,2.7,1.8,2.5,3.4
				C309.9,132.3,308.7,133.3,307.2,133.3z M307.2,128.9c-0.3,0-0.6,0.1-0.9,0.3c-0.3,0.2-0.5,0.6-0.6,1c-0.1,0.4,0,0.8,0.3,1.1
				c0.2,0.3,0.6,0.5,1,0.6c0.8,0.1,1.5-0.4,1.7-1.2c0.1-0.8-0.4-1.5-1.2-1.7C307.3,128.9,307.3,128.9,307.2,128.9z"/>
			<path class="st7" d="M420.6,158c0,0-0.1,0-0.1,0l-128.9-19.1c-0.4-0.1-0.7-0.4-0.6-0.9c0.1-0.4,0.4-0.7,0.9-0.6l128.9,19.1
				c0.4,0.1,0.7,0.4,0.6,0.9C421.3,157.7,421,158,420.6,158z"/>
			<path class="st8" d="M366.8,321.8c0,0-0.1,0-0.1,0l-68.8-10.2c-0.4-0.1-0.7-0.4-0.6-0.9c0.1-0.4,0.4-0.7,0.9-0.6l68.8,10.2
				c0.4,0.1,0.7,0.4,0.6,0.9C367.5,321.5,367.2,321.8,366.8,321.8z"/>
			<path class="st8" d="M326.1,324.1c0,0-0.1,0-0.1,0l-29.3-4.3c-0.4-0.1-0.7-0.4-0.6-0.9c0.1-0.4,0.4-0.7,0.9-0.6l29.3,4.3
				c0.4,0.1,0.7,0.4,0.6,0.9C326.8,323.9,326.5,324.1,326.1,324.1z"/>
			<path class="st8" d="M316.2,330.5c0,0-0.1,0-0.1,0l-20.5-3c-0.4-0.1-0.7-0.4-0.6-0.9c0.1-0.4,0.5-0.7,0.9-0.6l20.5,3
				c0.4,0.1,0.7,0.4,0.6,0.9C316.9,330.3,316.6,330.5,316.2,330.5z"/>
			<path class="st8" d="M365.6,330c0,0-0.1,0-0.1,0l-30.3-4.5c-0.4-0.1-0.7-0.4-0.6-0.9c0.1-0.4,0.4-0.7,0.9-0.6l30.3,4.5
				c0.4,0.1,0.7,0.4,0.6,0.9C366.3,329.7,366,330,365.6,330z"/>
			<g>
				<path class="st8" d="M358.4,264.7c0,0-0.1,0-0.1,0l-68.8-10.2c-0.4-0.1-0.7-0.4-0.6-0.9c0.1-0.4,0.4-0.7,0.9-0.6l68.8,10.2
					c0.4,0.1,0.7,0.4,0.6,0.9C359.1,264.4,358.8,264.7,358.4,264.7z"/>
				<path class="st8" d="M317.7,267.1c0,0-0.1,0-0.1,0l-29.3-4.3c-0.4-0.1-0.7-0.4-0.6-0.9c0.1-0.4,0.4-0.7,0.9-0.6l29.3,4.3
					c0.4,0.1,0.7,0.4,0.6,0.9C318.4,266.8,318.1,267.1,317.7,267.1z"/>
				<path class="st8" d="M348.1,279.4c0,0-0.1,0-0.1,0l-59.4-9.2c-0.4-0.1-0.7-0.5-0.6-0.9c0.1-0.4,0.5-0.7,0.9-0.6l59.4,9.2
					c0.4,0.1,0.7,0.5,0.6,0.9C348.8,279.1,348.5,279.4,348.1,279.4z"/>
				<path class="st8" d="M357.2,272.9c0,0-0.1,0-0.1,0l-30.3-4.5c-0.4-0.1-0.7-0.4-0.6-0.9c0.1-0.4,0.4-0.7,0.9-0.6l30.3,4.5
					c0.4,0.1,0.7,0.4,0.6,0.9C357.9,272.6,357.6,272.9,357.2,272.9z"/>
			</g>
			<path class="st6" d="M289.1,149.2l97.2,14.4c1.6,0.2,2.7,1.7,2.4,3.3l-3.7,25.2c-0.2,1.6-1.7,2.7-3.3,2.4l-83.1-12.3l-11.6,8.8
				l1.5-10.3l-4-0.6c-1.6-0.2-2.7-1.7-2.4-3.3l3.7-25.2C286,150.1,287.5,149,289.1,149.2z"/>
			<path class="st7" d="M384.9,192.9c0,0-0.1,0-0.1,0c-0.4-0.1-0.7-0.4-0.6-0.9l3.7-25.2c0.1-0.6-0.1-1.1-0.4-1.6
				c-0.3-0.5-0.8-0.8-1.4-0.8l-60.3-8.9c-0.4-0.1-0.7-0.4-0.6-0.9c0.1-0.4,0.5-0.7,0.9-0.6l60.3,8.9c1,0.1,1.8,0.7,2.4,1.4
				c0.6,0.8,0.8,1.7,0.7,2.7l-3.7,25.2C385.6,192.6,385.3,192.9,384.9,192.9z"/>
			<g>
				<path class="st8" d="M370.9,169.9c0,0-0.1,0-0.1,0L302,159.7c-0.4-0.1-0.7-0.4-0.6-0.9c0.1-0.4,0.4-0.7,0.9-0.6l68.8,10.2
					c0.4,0.1,0.7,0.4,0.6,0.9C371.6,169.7,371.3,169.9,370.9,169.9z"/>
				<path class="st8" d="M330.2,172.3c0,0-0.1,0-0.1,0l-29.3-4.3c-0.4-0.1-0.7-0.4-0.6-0.9c0.1-0.4,0.4-0.7,0.9-0.6l29.3,4.3
					c0.4,0.1,0.7,0.4,0.6,0.9C330.9,172,330.6,172.3,330.2,172.3z"/>
				<path class="st8" d="M360.6,184.6c0,0-0.1,0-0.1,0l-59.4-9.2c-0.4-0.1-0.7-0.5-0.6-0.9c0.1-0.4,0.5-0.7,0.9-0.6l59.4,9.2
					c0.4,0.1,0.7,0.5,0.6,0.9C361.3,184.4,361,184.6,360.6,184.6z"/>
				<path class="st8" d="M369.7,178.1c0,0-0.1,0-0.1,0l-30.3-4.5c-0.4-0.1-0.7-0.4-0.6-0.9c0.1-0.4,0.4-0.7,0.9-0.6l30.3,4.5
					c0.4,0.1,0.7,0.4,0.6,0.9C370.4,177.9,370.1,178.1,369.7,178.1z"/>
			</g>
			<path class="st8" d="M382.3,218.3c0,0-0.1,0-0.1,0l-68.8-10.2c-0.4-0.1-0.7-0.4-0.6-0.9c0.1-0.4,0.4-0.7,0.9-0.6l68.8,10.2
				c0.4,0.1,0.7,0.4,0.6,0.9C383,218,382.7,218.3,382.3,218.3z"/>
			<path class="st8" d="M341.6,220.7c0,0-0.1,0-0.1,0l-29.3-4.3c-0.4-0.1-0.7-0.4-0.6-0.9c0.1-0.4,0.5-0.7,0.9-0.6l29.3,4.3
				c0.4,0.1,0.7,0.4,0.6,0.9C342.3,220.4,342,220.7,341.6,220.7z"/>
			<path class="st8" d="M331.8,227c0,0-0.1,0-0.1,0l-20.5-3c-0.4-0.1-0.7-0.4-0.6-0.9c0.1-0.4,0.4-0.7,0.9-0.6l20.5,3
				c0.4,0.1,0.7,0.4,0.6,0.9C332.4,226.8,332.1,227,331.8,227z"/>
			<path class="st8" d="M381.1,226.5c0,0-0.1,0-0.1,0l-30.3-4.5c-0.4-0.1-0.7-0.4-0.6-0.9c0.1-0.4,0.4-0.7,0.9-0.6l30.3,4.5
				c0.4,0.1,0.7,0.4,0.6,0.9C381.8,226.2,381.5,226.5,381.1,226.5z"/>
		</g>
		<g>
			<g>
				<path class="st11" d="M242.5,402.9L86.6,420.5c-3,0.3-5.7-1.8-6-4.8l-11.2-99.8c0-0.2,0.1-0.3,0.3-0.3l166.1-18.7
					c0.2,0,0.3,0.1,0.3,0.3l11.3,99.9C247.6,399.9,245.4,402.6,242.5,402.9z"/>
				<path class="st7" d="M86,421.3c-3.1,0-5.8-2.3-6.2-5.5l-11.2-99.8c-0.1-0.6,0.3-1.1,0.9-1.2L235.6,296c0.6-0.1,1.1,0.3,1.2,0.9
					l11.3,99.9c0.2,1.6-0.3,3.3-1.3,4.5c-1,1.3-2.5,2.1-4.1,2.3L86.7,421.2C86.5,421.3,86.2,421.3,86,421.3z M70.1,316.2l11.2,99.4
					c0.3,2.6,2.6,4.4,5.2,4.1l155.8-17.6l0.1,0.8l-0.1-0.8c1.2-0.1,2.3-0.8,3.1-1.7c0.8-1,1.1-2.2,1-3.4l-11.2-99.4L70.1,316.2z"/>
			</g>
			<path class="st12" d="M235.2,402.9L94.2,420.5c-3,0.3,43.7-59.5,43.3-62.5l-68.2-42.1c0-0.2,0.1-0.3,0.3-0.3l166.1-18.7
				c0.2,0,0.3,0.1,0.3,0.3l-56.8,56.2C179.5,356.2,238.1,402.6,235.2,402.9z"/>
			<g>
				<path class="st11" d="M69.6,315.5l68.7-67.9c4.1-4.1,10.4-4.8,15.3-1.8l81.6,50.7c0.1,0.1,0.1,0.3-0.1,0.3L69.3,315.5"/>
				<path class="st7" d="M69.4,316.3l-0.1-1.1l-0.2-0.2l0.2-0.2l0,0l0,0l68.5-67.7c4.4-4.3,11.1-5.1,16.3-1.9l81.6,50.7
					c0.3,0.2,0.5,0.6,0.4,1c-0.1,0.4-0.4,0.7-0.8,0.7L69.4,316.3z M147,244.7c-3,0-6,1.2-8.2,3.4l-67.1,66.4l161.7-18.2l-80.2-49.8
					C151.3,245.3,149.2,244.7,147,244.7z"/>
			</g>
			<path class="st12" d="M69.6,315.5l68.7-67.9c4.1-4.1,10.4-4.8,15.3-1.8l81.6,50.7c0.1,0.1,0.1,0.3-0.1,0.3L69.3,315.5"/>
			<g>
				<path class="st11" d="M145.9,347.5l-51.6,71.8l140.9-15.9l-66.3-58.5C161.9,338.8,151.3,340,145.9,347.5z"/>
				<path class="st7" d="M92.6,420.3l52.6-73.2l0.6,0.4l-0.6-0.4c2.7-3.7,6.9-6.2,11.4-6.7c4.6-0.5,9.2,0.9,12.7,4l67.6,59.7
					L92.6,420.3z M158.5,341.8c-0.6,0-1.1,0-1.7,0.1c-4.2,0.5-7.9,2.7-10.4,6.1l-50.6,70.4l137.5-15.5l-65-57.4
					C165.6,343.1,162.1,341.8,158.5,341.8z"/>
			</g>
			<g>
				<path class="st8" d="M78,266.3l108.5-12.2c7.1-0.8,13.4,3.6,14.1,9.7l7,61.9l-30.2,27.7l-39.9,4.5l-39.4-24.6l-6.8-60L78,266.3z
					"/>
				<path class="st7" d="M137.4,358.7l-39.9-25l-6.8-60l-10.3-8.5l106.1-12c3.6-0.4,7.2,0.4,10,2.4c2.9,2,4.6,4.8,5,8l7,62.3
					l-30.7,28.2L137.4,358.7z M98.9,332.9l38.9,24.3l39.4-4.4l29.7-27.3l-6.9-61.5c-0.3-2.8-1.9-5.2-4.3-6.9c-2.5-1.7-5.7-2.5-9-2.1
					l-106.1,12l11.6,6.1L98.9,332.9z"/>
			</g>
			<path class="st12" d="M145.9,341.3l-51.6,78l140.9-15.9l-66.3-64.7C161.9,332.6,151.3,333.8,145.9,341.3z"/>
			<g>
				<path class="st11" d="M145.9,347.5l-51.6,71.8l140.9-15.9l-66.3-58.5C161.9,338.8,151.3,340,145.9,347.5z"/>
				<path class="st7" d="M92.6,420.3l52.6-73.2l0.6,0.4l-0.6-0.4c2.7-3.7,6.9-6.2,11.4-6.7c4.6-0.5,9.2,0.9,12.7,4l67.6,59.7
					L92.6,420.3z M158.5,341.8c-0.6,0-1.1,0-1.7,0.1c-4.2,0.5-7.9,2.7-10.4,6.1l-50.6,70.4l137.5-15.5l-65-57.4
					C165.6,343.1,162.1,341.8,158.5,341.8z"/>
			</g>
			<path class="st13" d="M150.9,363.4L113,416.1l103.5-11.7l-48.7-43C162.7,357,154.8,357.9,150.9,363.4z"/>
			<g>
				<line class="st11" x1="69.7" y1="315.6" x2="137.6" y2="358"/>
				
					<rect x="102.9" y="296.8" transform="matrix(0.5289 -0.8487 0.8487 0.5289 -237.0322 246.6197)" class="st7" width="1.5" height="80"/>
			</g>
			<g>
				<line class="st11" x1="236" y1="296.9" x2="179.2" y2="353.3"/>
				
					<rect x="167.6" y="324.3" transform="matrix(0.7096 -0.7047 0.7047 0.7096 -168.7865 240.6873)" class="st7" width="80" height="1.5"/>
			</g>
			<g>
				<path class="st9" d="M94.4,301l-18.9,2.1l-3-27c-0.6-5,3-9.5,8-10.1l0.9-0.1c5-0.6,9.5,3,10.1,8L94.4,301z"/>
				<path class="st7" d="M74.8,304l-3.1-27.8c-0.3-2.6,0.4-5.2,2.1-7.2c1.6-2.1,4-3.4,6.6-3.6l0.9-0.1c2.6-0.3,5.2,0.4,7.2,2.1
					c2.1,1.6,3.4,4,3.7,6.6l3.1,27.8L74.8,304z M82.4,266.6c-0.3,0-0.6,0-1,0.1l-0.9,0.1c-2.2,0.2-4.2,1.3-5.6,3.1
					c-1.4,1.7-2,3.9-1.8,6.1l3,26.3l17.4-2l-3-26.3c-0.2-2.2-1.3-4.2-3.1-5.6C86,267.3,84.2,266.6,82.4,266.6z"/>
			</g>
			<path class="st7" d="M107.3,286.9c-0.4,0-0.7-0.3-0.8-0.7c0-0.4,0.3-0.8,0.7-0.8l78.6-8.9c0.4-0.1,0.8,0.3,0.8,0.7
				c0,0.4-0.3,0.8-0.7,0.8L107.3,286.9C107.3,286.9,107.3,286.9,107.3,286.9z"/>
			<path class="st7" d="M110.3,313.6c-0.4,0-0.7-0.3-0.8-0.7c0-0.4,0.3-0.8,0.7-0.8l78.6-8.9c0.4-0.1,0.8,0.3,0.8,0.7
				c0,0.4-0.3,0.8-0.7,0.8L110.3,313.6C110.4,313.6,110.3,313.6,110.3,313.6z"/>
			<path class="st7" d="M108.8,300.1c-0.4,0-0.7-0.3-0.8-0.7c0-0.4,0.3-0.8,0.7-0.8l34-3.8c0.4,0,0.8,0.3,0.8,0.7
				c0,0.4-0.3,0.8-0.7,0.8L108.8,300.1C108.8,300.1,108.8,300.1,108.8,300.1z"/>
			<path class="st7" d="M151.7,295.3c-0.4,0-0.7-0.3-0.8-0.7c0-0.4,0.3-0.8,0.7-0.8l35.8-4c0.4,0,0.8,0.3,0.8,0.7
				c0,0.4-0.3,0.8-0.7,0.8L151.7,295.3C151.7,295.3,151.7,295.3,151.7,295.3z"/>
			<path class="st7" d="M112,328.8c-0.4,0-0.7-0.3-0.8-0.7c0-0.4,0.3-0.8,0.7-0.8l34-3.8c0.4,0,0.8,0.3,0.8,0.7
				c0,0.4-0.3,0.8-0.7,0.8L112,328.8C112.1,328.8,112,328.8,112,328.8z"/>
		</g>
	</g>
</g>
</svg>
