<?xml version="1.0" encoding="utf-8"?>
<!-- Generator: Adobe Illustrator 23.0.3, SVG Export Plug-In . SVG Version: 6.00 Build 0)  -->
<svg version="1.1" id="Layer_1" xmlns="http://www.w3.org/2000/svg" xmlns:xlink="http://www.w3.org/1999/xlink" x="0px" y="0px"
	 width="88.3px" height="28px" viewBox="0 0 88.3 28" style="enable-background:new 0 0 88.3 28;" xml:space="preserve">
<style type="text/css">
	.st0{fill:#DF5646;}
	.st1{fill:#FFFFFF;}
</style>
<g>
	<path class="st0" d="M5.2,10.5h2v7.7c0,2.2-1.3,3.4-3.1,3.4c-1.9,0-3.2-1.2-3.2-3.5h2c0,0.9,0.4,1.5,1.2,1.5c0.8,0,1.1-0.6,1.1-1.4
		V10.5z"/>
	<path class="st0" d="M9.6,10.5h2v6.8c0,1.5,0.8,2.3,2,2.3c1.3,0,2.1-0.8,2.1-2.3v-6.8h2v6.8c0,2.9-1.9,4.3-4.1,4.3s-4-1.4-4-4.3
		V10.5z"/>
	<path class="st0" d="M21.8,10.5v9.3h3.3v1.8h-5.4v-11H21.8z"/>
	<path class="st0" d="M26.4,10.5h2v11h-2V10.5z"/>
	<path class="st0" d="M35.1,21.6c-2.9,0-5.2-2.3-5.2-5.7c0-3.3,2.3-5.6,5.2-5.6c2.9,0,5.2,2.3,5.2,5.6C40.3,19.3,38,21.6,35.1,21.6z
		 M35.1,19.6c1.8,0,3.1-1.4,3.1-3.7c0-2.2-1.3-3.7-3.1-3.7c-1.8,0-3.1,1.4-3.1,3.7C32,18.2,33.3,19.6,35.1,19.6z"/>
	<path class="st1" d="M46.4,10.3c2.2,0,4.1,1.3,4.8,3.6h-2.3c-0.5-1.1-1.3-1.6-2.4-1.6c-1.8,0-3,1.4-3,3.6c0,2.2,1.3,3.7,3,3.7
		c1.1,0,2-0.5,2.4-1.6h2.3c-0.7,2.3-2.5,3.6-4.8,3.6c-2.9,0-5.1-2.3-5.1-5.6C41.3,12.7,43.5,10.3,46.4,10.3z"/>
	<path class="st1" d="M58.8,12.3H55V15h3.4v1.8H55v2.9h3.8v1.8h-5.9v-11h5.9V12.3z M57.4,6.4v1.8L54,9.8V8.3L57.4,6.4z"/>
	<path class="st1" d="M64.1,21.6c-2.1,0-3.7-1.2-3.8-3.3h2.2c0.1,0.9,0.6,1.5,1.5,1.5c1,0,1.5-0.6,1.5-1.3c0-2.4-5.2-0.9-5.2-4.9
		c0-2,1.5-3.2,3.6-3.2c2.1,0,3.5,1.2,3.6,3.1h-2.2c0-0.7-0.6-1.3-1.4-1.3c-0.8,0-1.4,0.4-1.4,1.3c0,2.2,5.2,1,5.2,4.9
		C67.7,20.1,66.4,21.6,64.1,21.6z"/>
	<path class="st1" d="M75.7,19.4h-4L71,21.5h-2.1l3.6-11h2.4l3.6,11h-2.1L75.7,19.4z M73.7,13l-1.5,4.6h2.9L73.7,13z"/>
	<path class="st1" d="M83.7,10.5c2.4,0,3.7,1.5,3.7,3.4c0,1.3-0.7,2.7-2.3,3.2l2.4,4.5h-2.3l-2.2-4.3h-1v4.3h-2v-11H83.7z
		 M83.6,12.3h-1.7v3.2h1.7c1.1,0,1.6-0.6,1.6-1.6C85.2,12.9,84.7,12.3,83.6,12.3z"/>
</g>
</svg>
