<?xml version="1.0" encoding="utf-8"?>
<!-- Generator: Adobe Illustrator 26.0.1, SVG Export Plug-In . SVG Version: 6.00 Build 0)  -->
<svg version="1.0" xmlns="http://www.w3.org/2000/svg" xmlns:xlink="http://www.w3.org/1999/xlink" x="0px" y="0px"
	 viewBox="0 0 500 500" style="enable-background:new 0 0 500 500;" xml:space="preserve">
<style type="text/css">
	.st0{display:none;}
	.st1{display:inline;fill:#EBEBEB;}
	.st2{fill:#FFFFFF;}
	.st3{fill:#A9C4F1;}
	.st4{fill:none;stroke:#2B231E;stroke-linecap:round;stroke-linejoin:round;stroke-miterlimit:10;}
	.st5{fill:#2B231E;}
	.st6{fill:#E9EAEA;}
	.st7{fill:#DE8461;}
	.st8{fill:#2B2336;}
	.st9{fill:#7E93E8;}
	.st10{fill:#E48868;}
	.st11{fill:#FCF6C9;}
	.st12{fill:none;stroke:#2B2336;stroke-linecap:round;stroke-linejoin:round;stroke-miterlimit:10;}
	.st13{fill:#E06D66;}
	.st14{fill:#F0D6AF;}
	.st15{fill:#C5C9C9;}
	.st16{fill:#FCF6DB;}
	.st17{fill:#F6DFBF;}
	.st18{fill:#FFFFFF;stroke:#2B231E;stroke-linecap:round;stroke-linejoin:round;stroke-miterlimit:10;}
	.st19{fill:#9CB884;}
	.st20{fill:none;stroke:#2B231E;stroke-width:0.6707;stroke-linecap:round;stroke-linejoin:round;stroke-miterlimit:10;}
	.st21{fill:#A0BB89;}
	.st22{fill:none;stroke:#E06D66;stroke-linecap:round;stroke-linejoin:round;stroke-miterlimit:10;}
	.st23{fill:none;stroke:#F0D6AF;stroke-miterlimit:10;}
	.st24{fill:none;stroke:#A9C4F1;stroke-linecap:round;stroke-linejoin:round;stroke-miterlimit:10;}
</style>
<g id="Background_Complete">
</g>
<g id="Background_Simple" class="st0">
	<path class="st1" d="M433.4,94.4l-2.5-4.1c-20.1-32.6-56.2-52.4-94.4-50.4c-5.4,0.3-10.7,1-16,2.1c-35.2,7.4-65.8,33.7-78.5,67.3
		c-7.5,19.8-9.5,42.6-23.7,58.3c-18.4,20.4-49.7,21.1-77.2,20.2c-27.5-0.8-58.8-0.1-77.2,20.4c-11.5,12.9-15.1,31.1-14.2,48.3
		c2.5,45.6,34.6,86.3,75.5,106.6c40.9,20.3,89,22.1,133.8,13.2c62.7-12.5,122.3-46.8,158.2-99.7C453,223.7,462.1,151.6,433.4,94.4z"
		/>
	<path class="st1" d="M179.6,105.7c-9.9-9.9-27.3-16.8-39.1-9.3l1.7-0.9c-12.5,6.2-20.6,20.4-19.3,34.3c1.3,13.9,12,26.5,25.6,29.8
		c13.6,3.3,29-3.2,36-15.2C191.5,132.2,189.5,115.5,179.6,105.7z"/>
</g>
<g id="Floor">
</g>
<g id="Screens">
</g>
<g id="Character">
</g>
<g id="Plant">
</g>
<g id="Devices">
</g>
<g id="Desk">
	<g>
		<g>
			<g>
				<g>
					<path class="st2" d="M344.6,175.9c-34.2-32.1-74.3-40.3-84.6-41.9c7.1-19.2,18.2-47.9,20.9-52c0.9-0.1,2.7-0.3,5.4-0.3
						c7.8,0,24.4,1.6,48.4,12.4c34.8,15.7,44,33.3,45.8,37.5L344.6,175.9z M281.1,81.6L281.1,81.6z"/>
					<path class="st3" d="M286.2,83.7c7.6,0,23.9,1.6,47.5,12.2c31.6,14.2,41.7,30.1,44.3,35.4L344.4,173
						c-20.2-18.4-41.9-28.5-56.9-33.9c-10.8-3.8-19.6-5.8-24.8-6.7c7.9-21.3,16.6-43.3,19.4-48.6C283,83.7,284.4,83.7,286.2,83.7
						 M286.2,79.7c-4.2,0-6.4,0.4-6.4,0.4c-2.5,0.8-22.6,55.5-22.6,55.5s47.9,4.9,87.6,43.2l37.9-46.9c0,0-6.3-21.3-47.3-39.7
						C311.4,81.5,294.7,79.7,286.2,79.7L286.2,79.7z"/>
				</g>
				<path class="st4" d="M264.2,139.9c0,0,47.1,4.8,76.1,31.4"/>
				<polygon class="st3" points="304.9,137.6 322.5,103.4 340.5,139.1 				"/>
				<polygon class="st4" points="308.3,137.1 325.9,103 343.9,138.6 				"/>
			</g>
			<path class="st4" d="M291.8,77.6c0,0,52.8,4.8,85.6,43.8"/>
		</g>
		<path class="st5" d="M318.8,229c-2.9-2.1-4.8-3.6-4.8-3.6c0.8-1.1,13.5-14.6,20.9-25.5C334.9,199.9,320,229.8,318.8,229z"/>
		<path class="st4" d="M138.8,130.3c1.4,2.4,2,1.4,6.1,1.1c4.1-0.3,9.9,2.7,11.9,7.7c2,5,1.4,5.8,0.3,6.4s-9,1.6-9.3,3.1"/>
		<path class="st6" d="M171.8,396.6"/>
		<g>
			<polygon class="st7" points="244.7,386.2 241,380 228,401.6 231.4,404.3 			"/>
			<path class="st7" d="M158.4,332.5c0,0-6.7-10.9-3.8-16.3l21.5,2.3L158.4,332.5z"/>
			<path d="M158.4,332.5l1.3,3l-4,15.5c-0.5,1.9,0.1,4,1.7,5.3l0,0l19.6-29c1.9-2.8,1.4-6.5-1-8.7l-4.4-4.1L158.4,332.5z"/>
			<path class="st8" d="M147.9,148.7c6.2-0.1,13.9-0.5,12.4-5.2c-1.6-4.7-7.4-16.4-20.7-12.9c0,0-4.7,3.9,1.2,10.9
				C146.6,148.5,147.9,148.7,147.9,148.7z"/>
			<path class="st9" d="M179,318.7c0,0-10.5-31-1.6-44.6c7.3-11.2,31.3,7,34.6,9.5l17.1-31c0,0-4-5.5-13.7-11
				c-9.7-5.4-49.9-21.7-68.7,8.1c-7,11-7.1,58.2,6.3,76.3L179,318.7z"/>
			<path class="st4" d="M179,318.7c0,0-10.5-31-1.6-44.6c7.3-11.2,31.3,7,34.6,9.5"/>
			<path class="st9" d="M229.1,252.6c-7.8,8.2-30.9,48.2-36.1,67.3c-7,25.6-4.3,46.8,33.9,88.3l18.5-26.9c0,0-13-19.7-10.6-38.3
				c3.5-26.9,22.6-53,32.3-69.5L229.1,252.6z"/>
			<polygon class="st5" points="232.1,256.1 262.8,280.2 272,266.3 			"/>
			<path class="st10" d="M408.6,230.8c4.8,1,8.4,2.9,11,5.5c2.5,2.6,1.4,4,0.5,4.8c-0.9,0.8-4.4-0.1-7.5-2.9
				C409.4,235.4,408.6,230.8,408.6,230.8z"/>
			<path class="st7" d="M314,225.4c0.8-1.1,13.5-14.6,20.9-25.5c0,0,22.2,24.9,24.6,25.7c0.9,0.3,6.3,0.2,13.1,0.2
				c11.4-0.1,26.6-0.2,30,1.5c5.4,2.7,8.6,4,9.9,7.8c1.3,3.8,1.9,6.2-1.3,6.4c-3.8,0.3-6.2-4.6-6.2-4.6s-3.1,1.9-11,4.8
				c0,0-28.5,11.1-47.5,5.7C341.3,245.9,314,225.4,314,225.4z"/>
			<path class="st7" d="M141.3,125.9c-2.4,0.9-3.9,2-2.5,4.4c1.4,2.4,2,1.4,6.1,1.1c4.1-0.3,9.9,2.7,11.9,7.7c2,5,1.4,5.8,0.3,6.4
				s-9,1.6-9.3,3.1c-0.3,1.6,3.2,6.2,10.4,5.9l1.7-0.3c0,0,15.2,14.9,17.4,17.1s18.4,13.2,27.3,15.4c6.8,1.7,20.5-0.5,28.7-2.1
				c4-0.8,6.7-1.4,6.7-1.4s-6.2-11.1-7.4-28.3c0,0-14.8,2.4-24.6,4.5c0,0-23-12.8-34.1-18.5c0,0-9.7-11.9-14.3-13.5
				C155.1,125.9,144.6,124.6,141.3,125.9z"/>
			<path class="st5" d="M233.5,184.6c4-0.8,6.7-1.4,6.7-1.4s-7.5-9.4-8.7-26.6c0,0-3.4,3.6-2.3,13.4
				C230.4,182.2,233.5,184.6,233.5,184.6z"/>
			<path class="st11" d="M231.1,154.7c0,0,0.2,20.9,5.8,29.7l2-0.8c0,0-26.4,30.9-35,51.1c-1.4,3.3,54.9,39.3,63.2,38.8
				c0,0,27.4-41.9,36.8-54.3L314,227c0,0,19.8-20,20.8-27.1c0,0-19.1-23.2-34.7-30c-15.6-6.8-29.6-18.5-46.4-18.1
				C239.2,152,231.1,154.7,231.1,154.7z"/>
			<polygon class="st5" points="314,227 304,219.2 305.6,214.8 			"/>
			<path class="st7" d="M329.4,144.2c-1.8,5.5-6.9,21.4-12.5,23.3c-5.7,2-11.6-0.5-11.6-0.5l-6.1,3.1c-0.7,2-5.5,3.8-11.6,4
				c-4.6,0.2-7.4-5.7-6-9.9c0.6-2,2.9-11.6,2.9-11.6s4.9-18,9.4-21.8c4.5-3.7,8.7-7.4,20.8-2.5C333.1,135.8,329.4,144.2,329.4,144.2
				z"/>
			<path class="st8" d="M292.8,145c-0.8,3.4-4.3,10.1-6.6,8.9c-2.3-1.2-3.1-4.3-1.5-10.2c1.6-5.9,3-19.4,7.6-21.8
				c4.6-2.4,6.6,0.4,6.6,0.4s-2-9.8,3.9-11.2c0,0,2-0.9,1.2,5.8c0,0,2.3-6.2,9.7-5.4c7.4,0.8,10,11.2,10,11.2s0.5-2.8,3.9-2.8
				c3.4,0,8.5,5,7.3,10.5c0,0,8.6-2.7,13.2,4.2c4.6,6.9,4,14.4-7,17.4c-11.6,3.1-11.5-10.4-13.2-12.1c-1.8-1.8-3.6-3.8-10.1-1.3
				c-6.5,2.4-13.2-4.7-13.2-4.7s-1.1,8.6-2.2,9.4c-1.1,0.8-3.2,1.9-2.7-2.2c0.5-4,1.2-3.6,0.8-4.7c-0.4-1.1-2.2-4.5-6.1-1.5
				C290.1,138.1,292.8,145,292.8,145z"/>
			<path class="st12" d="M294.7,146.5c-2.6-2.2-4.4-6-2.1-9.8c2.3-3.8,6-4.3,7.1-2.9c1.1,1.4,1.6,3.9,0.5,6.7"/>
			<path d="M231.4,404.3l1.3,3l-4,15.5c-0.5,1.9,0.1,4,1.7,5.3h0l19.6-29c1.9-2.8,1.4-6.5-1-8.7l-4.4-4.1L231.4,404.3z"/>
			<path class="st12" d="M298.9,122.2c0,0-1.5-4.9-6-6.2"/>
			<line class="st4" x1="203.3" y1="233.2" x2="257.7" y2="157.2"/>
			<path class="st4" d="M280.2,162.5c-2,2.5-2.9,13.5,6.2,14.2c9,0.7,14.8-3.3,14.8-3.3"/>
			<path class="st4" d="M159.7,127.5c0,0,6.2,8.2,7.2,11.2"/>
			<path class="st4" d="M392.6,237.8c0,0,4.2,3.4,12.4-1c3-1.6,0.9-5.4-2.9-4.5c-3.8,0.9-8.3-0.5-8.3-0.5"/>
			<path class="st4" d="M410,231.2c0,0,4,4.7,3.9,7.4"/>
			<path class="st4" d="M351.3,230.7c0,0,3.6-4.8,8.2-5.1"/>
			<path class="st4" d="M199.3,167.2c0,0,2.1-6.6,8.9-7.8"/>
			<path class="st4" d="M217.5,266.7l-8,15.4c0,0-26.5,44.9-17.5,73.9"/>
			<path class="st4" d="M241,318.2l26.1-44.7c0,0,34.2-49.6,37.7-56.6l12.1-22.3"/>
			<path class="st4" d="M207,238c0,0,46.4,33.8,60.2,35.5"/>
			<path class="st4" d="M231.1,154.7c0,0,0,21.2,5.7,29.9"/>
			<path class="st4" d="M333.4,196.5c-1.5,8.8-20.8,27.1-20.8,27.1"/>
		</g>
		<path class="st5" d="M328.8,222.3"/>
		<path class="st7" d="M415.7,285.1"/>
		<circle class="st5" cx="188.8" cy="302.8" r="2.8"/>
		<g>
			<polygon class="st4" points="447.4,362 445.9,351.5 454.9,357.4 450.2,358.5 			"/>
			<path class="st4" d="M149.2,182c-17-15-45.2,22.5,57.8,141.8c59.4,68.8,106.1,75,112.5,51.1c11.3-43-29.6-53.8-14.4-37
				c22.2,24.5,85.3,29.6,132.3,6.8c46.4-22.5,17.9-57.5,15-59.6"/>
			<circle class="st5" cx="438.1" cy="344.5" r="2.8"/>
			<line class="st4" x1="398" y1="367" x2="479.7" y2="320.9"/>
			<circle class="st5" cx="150.9" cy="184.3" r="2.8"/>
		</g>
		<circle class="st13" cx="221.2" cy="127.4" r="5.9"/>
		<g>
			<path class="st3" d="M113.9,82.2c-1.4,0-2.6,1.2-2.6,2.6s1.2,2.6,2.6,2.6s2.6-1.2,2.6-2.6S115.3,82.2,113.9,82.2L113.9,82.2z"/>
		</g>
		<circle class="st14" cx="462.2" cy="402.5" r="2.6"/>
		<g>
			<path class="st8" d="M415.7,285.1L387.8,272c-2.3-1.1-2.2-4.3,0.1-5.3l52-22.9c0.7-0.3,1.6-0.3,2.3,0l35.7,15.3L415.7,285.1z"/>
			<path class="st15" d="M414,242c0.1,11.6,1.7,43.1,1.7,43.1l62.1-26l-1.4-43.9c-0.1-2.7-2.9-4.4-5.3-3.3l-53.5,24.4
				C415.4,237.3,414,239.6,414,242z"/>
			<path class="st4" d="M415.7,285.1l62.1-26l-1.4-43.9c0,0-0.4-4.8-5.3-3.3"/>
			<line class="st4" x1="445.8" y1="253.6" x2="450" y2="243.7"/>
			<line class="st4" x1="450" y1="253.6" x2="454.2" y2="243.7"/>
		</g>
		<circle class="st13" cx="125.1" cy="359.1" r="2.6"/>
		<circle class="st13" cx="344.2" cy="372" r="3.6"/>
		<g>
			<path class="st16" d="M152,397.7c4.2,2,16.5,7.1,32.8,7c0.9,0,1.6,0.8,1.5,1.7l-2.3,18c-0.1,0.6-0.6,1.2-1.2,1.3
				c-4.6,0.9-23.1,3.4-37-8.4c-0.4-0.4-0.6-1-0.5-1.5l4.6-17.2C150.2,397.7,151.2,397.3,152,397.7z"/>
			<path class="st4" d="M153.6,403c0,0,8,11.3,10.9,12.9c2.9,1.6,18.3-7.6,18.3-7.6"/>
			<line class="st4" x1="172.1" y1="414.3" x2="180.5" y2="422.9"/>
			<line class="st4" x1="160.4" y1="412.6" x2="150.5" y2="415.3"/>
		</g>
		<rect x="400.4" y="184.7" class="st17" width="9.4" height="9.4"/>
		<g>
			<polygon class="st3" points="401.6,311.6 404.4,316.4 407.2,321.3 401.6,321.3 396,321.3 398.8,316.4 			"/>
		</g>
		<g>
			<path class="st4" d="M175.6,97.1l0.7-22c-0.1-2.1,0.8-2.7,2-3c6-1.3,24.1-5.4,43.9,0.5c2.6,0.8,2.5,2.1,2.4,3.3l-0.7,21
				c-0.1,1.5-1.7,2.7-3.5,2.4c-5.8-0.8-13.6-1.1-21.6-1c-8.2,0.1-15.6,0.7-20.7,1.7C176.3,100.3,175.5,98.8,175.6,97.1z"/>
			<path class="st4" d="M182.2,93.9l11.5-13.5L206.5,93C202.1,91.6,182.2,93.9,182.2,93.9z"/>
			<polyline class="st4" points="200.8,86.7 210.1,79.2 217.9,84.8 218.2,93.5 206.5,93 			"/>
			<ellipse transform="matrix(0.1006 -0.9949 0.9949 0.1006 87.5785 255.3042)" class="st4" cx="185" cy="79.2" rx="1.9" ry="2.3"/>
		</g>
		<g>
			<path class="st4" d="M397.8,382.7l7.7,14.2c0.8,1.3,0.5,2-0.2,2.6c-3.3,3.1-13.3,12.4-28,16c-1.9,0.5-2.4-0.4-2.8-1.2l-7.3-13.6
				c-0.5-1,0.1-2.3,1.3-2.8c4-1.6,9.1-4.4,14.1-7.4c5.2-3.1,9.6-6.2,12.5-8.7C396.2,380.9,397.2,381.5,397.8,382.7z"/>
			<path class="st4" d="M394.8,387.2l-2.3,12.8l-12.7-3.2C383,396,394.8,387.2,394.8,387.2z"/>
			<polyline class="st4" points="385.7,398.6 382.5,406.8 375.5,406.2 372.1,400.7 379.7,396.7 			"/>
			
				<ellipse transform="matrix(0.9095 -0.4157 0.4157 0.9095 -129.1879 201.6226)" class="st4" cx="398.5" cy="397.5" rx="1.7" ry="1.4"/>
		</g>
		<g>
			<g>
				<path class="st18" d="M360.3,139.7l31.3,24c0.7,0.5,1.7,0.4,2.2-0.3l4.7-6.4c0.5-0.7,0.4-1.6-0.3-2.1l-30.9-24.7
					c-0.7-0.6-1.7-0.4-2.2,0.3l-5.2,7.1C359.5,138.2,359.6,139.2,360.3,139.7z"/>
				<polygon class="st13" points="362.6,138.6 370.2,143.9 374.7,138.6 367.1,132.3 				"/>
				<polygon class="st14" points="373,146 380.6,152.1 384.7,147 377.1,140.8 				"/>
				<polygon class="st3" points="383.2,154.4 390.8,159.7 394.4,155.1 387.2,149 				"/>
			</g>
			<g>
				<path class="st18" d="M422.7,106.2l7.1,60c0.2,1.3,1.4,2.2,2.7,2.1l12.1-1.7c1.3-0.2,2.2-1.3,2-2.6l-5.9-60.3
					c-0.1-1.3-1.4-2.3-2.7-2.1l-13.4,2C423.5,103.7,422.6,104.9,422.7,106.2z"/>
				<polygon class="st13" points="426.4,107.6 428.7,121.6 439.3,120.8 438.2,105.7 				"/>
				<polygon class="st19" points="429.4,127 430.9,141.7 440.8,140.9 439.4,125.8 				"/>
				<polygon class="st14" points="431.1,147 433.4,161.1 442.3,160.1 441.3,145.7 				"/>
			</g>
			<path class="st18" d="M407.2,118.9l19.8,58.1c0.3,1,1.4,1.5,2.4,1.2l12.4-4.5c1-0.3,1.5-1.4,1.2-2.3l-18.6-58.7
				c-0.3-1-1.4-1.6-2.5-1.2l-13.6,5C407.3,116.9,406.8,118,407.2,118.9z"/>
			<polygon class="st3" points="411.2,120 416.3,133.2 426.6,130.3 422.3,115.7 			"/>
			<polygon class="st7" points="418.2,138.3 422.7,152.5 432.2,149.6 427.7,135.1 			"/>
			<polygon class="st14" points="424,157.6 429.1,170.9 437.7,168 433.7,154.2 			"/>
		</g>
		<g>
			<path class="st9" d="M258.5,217.3H158.2c-3,0-5.5-2.5-5.5-5.5v-14.1c0-3,2.5-5.5,5.5-5.5h100.3c3,0,5.5,2.5,5.5,5.5v14.1
				C264,214.9,261.5,217.3,258.5,217.3z"/>
			<path class="st2" d="M220.9,203.5h-54.6c-1,0-1.8-0.8-1.8-1.8v-0.2c0-1,0.8-1.8,1.8-1.8h54.6c1,0,1.8,0.8,1.8,1.8v0.2
				C222.8,202.7,221.9,203.5,220.9,203.5z"/>
			<line class="st4" x1="165.1" y1="208.4" x2="257.6" y2="208.4"/>
		</g>
		<g>
			<path class="st19" d="M119.4,147l-1.6-1.8l-5.2,4.8l1.6,1.8c0.6,0.7,1.7,0.7,2.4,0.1l2.7-2.5C120,148.8,120,147.7,119.4,147z"/>
			<path class="st4" d="M110.2,135.8l7.5,8.2c0.4,0.4,0.3,1-0.1,1.4l-5.2,4.8c-0.4,0.4-1,0.3-1.4-0.1l-7.5-8.2
				c-0.4-0.4-0.3-1,0.1-1.4l5.2-4.8C109.2,135.3,109.9,135.4,110.2,135.8z"/>
		</g>
		<g>
			<rect x="86.5" y="178.8" class="st13" width="9.3" height="8.5"/>
			<polyline class="st4" points="86.5,173.3 86.5,178.8 81,178.8 			"/>
		</g>
		<g>
			<rect x="393.7" y="82.7" class="st14" width="9.3" height="8.5"/>
			<polyline class="st4" points="393.7,77.2 393.7,82.7 388.1,82.7 			"/>
		</g>
		<g>
			<path class="st4" d="M141.4,135.3c-96.7-40.1-171.1,37.1,11.1,155.3c14.3,9.3,36.3,12.6,36.3,12.6"/>
			<circle class="st5" cx="52.5" cy="138" r="2.8"/>
			<g>
				<polygon class="st4" points="34.9,122.8 37.9,120 44.9,123.9 48.4,134.7 37.7,130.2 				"/>
				<polygon class="st4" points="37.9,120 34.9,122.8 33.2,120.8 36.1,118 				"/>
				<line class="st4" x1="48.4" y1="134.7" x2="41.4" y2="127.1"/>
			</g>
		</g>
		<g>
			<path class="st18" d="M65.1,327.6l7.5,38.7c0.2,0.8,1,1.4,1.8,1.2l7.8-1.7c0.8-0.2,1.3-1,1.2-1.8l-6.7-39c-0.1-0.9-1-1.4-1.9-1.2
				l-8.6,1.9C65.5,326,65,326.8,65.1,327.6z"/>
			<polygon class="st13" points="67.6,328.4 69.7,337.4 76.6,336.4 75.1,326.6 			"/>
			<polygon class="st14" points="70.5,340.8 72.1,350.4 78.5,349.4 76.9,339.6 			"/>
			<polygon class="st3" points="72.5,353.8 74.7,362.9 80.4,361.8 79.1,352.5 			"/>
		</g>
		<g>
			<polygon class="st4" points="280.2,424.6 312,416.1 313.2,419.6 281.1,427.9 			"/>
			<g>
				<line class="st4" x1="275.8" y1="420.2" x2="276.7" y2="423.1"/>
				<line class="st4" x1="274.9" y1="422.1" x2="277.6" y2="421.2"/>
			</g>
			<g>
				<line class="st4" x1="274.3" y1="431.2" x2="276" y2="436.7"/>
				<line class="st4" x1="272.8" y1="434.7" x2="277.6" y2="433.1"/>
			</g>
			<g>
				<line class="st4" x1="267" y1="422.2" x2="269.3" y2="429.4"/>
				<line class="st4" x1="264.8" y1="426.7" x2="271.5" y2="424.6"/>
			</g>
		</g>
		<g>
			<polygon class="st20" points="48.7,79.7 28.6,70.7 29.5,68.4 49.7,77.7 			"/>
			<g>
				<line class="st20" x1="49.1" y1="83.9" x2="49.9" y2="82"/>
				<line class="st20" x1="50.4" y1="83.3" x2="48.6" y2="82.7"/>
			</g>
			<g>
				<line class="st20" x1="54.6" y1="78.9" x2="56" y2="75.3"/>
				<line class="st20" x1="56.8" y1="77.7" x2="53.7" y2="76.5"/>
			</g>
			<g>
				<line class="st20" x1="54.6" y1="86.6" x2="56.5" y2="81.9"/>
				<line class="st20" x1="57.6" y1="85.2" x2="53.3" y2="83.5"/>
			</g>
		</g>
		<g>
			<path class="st14" d="M123.8,249.4c-14.2-10.2-28.1-26-22-42.3c0,0,9.8-6.5,25.2,1.6s15.5,8.1,15.5,8.1L123.8,249.4z"/>
			<g>
				<path class="st2" d="M117.4,317.4c-6.3-2.9-33.7-17.1-38.5-41.5c-4.2-21.1,12-49.5,20-61.9c-0.7,16.6,16,30.7,24.1,36.5
					c8.1,5.9,14.1,8.7,22.4,11.8L117.4,317.4z"/>
				<path class="st14" d="M97.7,218.9c1.6,11.1,10,22.6,24.4,33c7.7,5.6,13.6,8.5,21.2,11.4l-26.5,52.2
					c-7.9-3.9-31.9-17.5-36.4-39.8C76.7,257.1,89.4,232.4,97.7,218.9 M101.8,207.1c0,0-30.1,40.7-24.4,69.2s40.7,43.1,40.7,43.1
					l29.3-57.8c-9.2-3.4-15.1-6.1-23.6-12.2C109.7,239.2,95.7,223.4,101.8,207.1L101.8,207.1z"/>
			</g>
			<path class="st4" d="M93.9,230.7c0,0,1.8,16.3,18.1,25.1"/>
			<line class="st4" x1="120.8" y1="261.7" x2="137.1" y2="270.4"/>
			<path class="st4" d="M96.3,254.1c0,0,5.3,11.7,22.2,19.3"/>
			<path class="st4" d="M82.8,255.8c0,0,0.6,12.3,8.8,16.3"/>
			<path class="st4" d="M101.5,213.2c0,0-1.5,15.7,22.3,36.2"/>
			<path class="st4" d="M110.3,216.2c0,0,7.6-0.6,18.7,7.6"/>
			<path class="st4" d="M74.6,266.4c-0.5,7.8,0.5,36.1,41.5,54.2"/>
		</g>
		<g>
			<path class="st19" d="M336.3,250.7l-17.4,34.8c0,0,11.8,4.3,2.6,17.9c0,0,21.8,9,36.1-14.4S336.3,250.7,336.3,250.7z"/>
			<g>
				<path class="st2" d="M296.5,357.2c-8.8,0-18.2-3.6-27.7-10.7l32.6-54l19.4,12.2l0.1,0c0.2,0.1,4.5,1.8,10.5,1.8
					c5,0,11.2-1.2,17.3-5.6l-24,41C324.8,342.1,314.5,357.2,296.5,357.2z"/>
				<path class="st21" d="M301.9,294.6l18,11.3l0.2,0.1l0.2,0.1c0.2,0.1,4.8,1.9,11.1,1.9c3.8,0,8.4-0.7,13.1-2.9l-21,35.9
					c-0.7,1-10.4,14.6-27,14.6c-8.2,0-16.8-3.2-25.7-9.6L301.9,294.6 M357.6,288.9c-8.1,13.3-18.5,16.1-26.1,16.1
					c-5.8,0-10-1.7-10-1.7l-20.6-13l-34.1,56.5c11.4,8.8,21.4,11.9,29.7,11.9c19,0,29.6-16,29.6-16L357.6,288.9L357.6,288.9z"/>
			</g>
			<path class="st4" d="M318.9,285.5c0,0,13,4.6,2.6,17.9"/>
			<path class="st4" d="M300.5,289.2c0,0,17.7,16.2,27.4,16.1c9.8-0.1,21.2-2.4,28-14.1"/>
			<path class="st4" d="M302.7,310.1c0,0,12.1,10.8,25.7,7.3"/>
			<path class="st4" d="M315.4,326.2c0,0,6.4,4.8,15.3,0.3"/>
			<path class="st4" d="M286.2,332.9c0,0,14.7,14.6,37.8,5"/>
			<path class="st4" d="M294.1,318.6c0,0,6,4.3,9.7,5.6"/>
			<path class="st4" d="M339.3,260.8c0,0,13.4,4.4,15,22.1"/>
			<path class="st4" d="M346,282.6c0,0,6.2,9.5-4.3,19.1"/>
			<path class="st4" d="M268.1,349.5c0,0,33.6,28.8,58.1-4.9"/>
		</g>
		<line class="st22" x1="25.2" y1="239.8" x2="33" y2="239.8"/>
		<line class="st22" x1="462.2" y1="145.5" x2="470" y2="145.5"/>
		<line class="st23" x1="251.8" y1="91.6" x2="259.6" y2="91.6"/>
		<line class="st23" x1="477.1" y1="186.1" x2="484.9" y2="187.5"/>
		<line class="st24" x1="169" y1="381.9" x2="176.9" y2="381.9"/>
		<circle class="st19" cx="494" cy="284.1" r="2.6"/>
		<circle class="st19" cx="6" cy="159.4" r="2.6"/>
	</g>
</g>
</svg>
