<?xml version="1.0" encoding="utf-8"?>
<!-- Generator: Adobe Illustrator 26.0.1, SVG Export Plug-In . SVG Version: 6.00 Build 0)  -->
<svg version="1.1" id="Capa_1" xmlns="http://www.w3.org/2000/svg" xmlns:xlink="http://www.w3.org/1999/xlink" x="0px" y="0px"
	 viewBox="0 0 500 507.1" style="enable-background:new 0 0 500 507.1;" xml:space="preserve">
<style type="text/css">
	.st0{display:none;}
	.st1{display:inline;fill:#EBEBEB;}
	.st2{fill:none;stroke:#2A1E17;stroke-width:0.7222;stroke-linecap:round;stroke-linejoin:round;stroke-miterlimit:10;}
	.st3{fill:#F9F9F8;}
	.st4{fill:#9FCA78;}
	.st5{fill:#FFE179;}
	.st6{fill:#F9F8F6;}
	.st7{fill:#FFFFFF;}
	.st8{fill:#DED7D0;}
	.st9{fill:#FF3D43;}
	.st10{fill:#2A1E17;}
	.st11{fill:#F9F8F6;stroke:#2A1E17;stroke-width:0.7222;stroke-linecap:round;stroke-linejoin:round;stroke-miterlimit:10;}
	.st12{fill:#FBCAC4;}
	.st13{fill:#FF835C;}
	.st14{fill:#2A1E17;stroke:#2A1E17;stroke-width:0.7222;stroke-linecap:round;stroke-linejoin:round;stroke-miterlimit:10;}
	.st15{fill:none;stroke:#FFFFFF;stroke-width:0.7222;stroke-linecap:round;stroke-linejoin:round;stroke-miterlimit:10;}
	.st16{fill:#FFFFFF;stroke:#2A1E17;stroke-width:0.7222;stroke-linecap:round;stroke-linejoin:round;stroke-miterlimit:10;}
	.st17{fill:#7CA4FF;}
	.st18{fill:#AFCD5C;}
	.st19{fill:#FFE179;stroke:#FFE179;stroke-width:0.7222;stroke-miterlimit:10;}
</style>
<g id="Background_Complete">
</g>
<g id="Background_Simple" class="st0">
	<path class="st1" d="M433.4,94.4l-2.5-4.1c-20.1-32.6-56.2-52.4-94.4-50.4c-5.4,0.3-10.7,1-16,2.1c-35.2,7.4-65.8,33.7-78.5,67.3
		c-7.5,19.8-9.5,42.6-23.7,58.3c-18.4,20.4-49.7,21.1-77.2,20.2c-27.5-0.8-58.8-0.1-77.2,20.4c-11.5,12.9-15.1,31.1-14.2,48.3
		c2.5,45.6,34.6,86.3,75.5,106.6c40.9,20.3,89,22.1,133.8,13.2c62.7-12.5,122.3-46.8,158.2-99.7C453,223.7,462.1,151.6,433.4,94.4z"
		/>
	<path class="st1" d="M179.6,105.7c-9.9-9.9-27.3-16.8-39.1-9.3l1.7-0.9c-12.5,6.2-20.6,20.4-19.3,34.3c1.3,13.9,12,26.5,25.6,29.8
		s29-3.2,36-15.2C191.5,132.2,189.5,115.5,179.6,105.7z"/>
</g>
<g id="Floor">
</g>
<g id="Screens">
</g>
<g id="Character">
</g>
<g id="Plant">
</g>
<g id="Devices">
</g>
<g>
	<line class="st2" x1="228" y1="253.6" x2="272" y2="253.6"/>
	<line class="st2" x1="236" y1="253.6" x2="264" y2="253.6"/>
	<g>
		<path class="st2" d="M37.3,175.2c0,0-59.8,36.7-23.4,38.6c26.2,1.4,79.9-17.9,114.4-12.4s-93.7,132.3-27.6,132.3
			s152-120.1,166.8-82.7c0,0-45,163.5,7.5,136.7s206.5-247.1,271.7-216.9c56.2,26-46,263.9,50.1,151.6"/>
		<g>
			<path class="st3" d="M205.6,33.2h-40.1c-0.8,0-1.5-0.7-1.5-1.5V5.1c0-0.8,0.7-1.5,1.5-1.5h40.1c0.8,0,1.5,0.7,1.5,1.5v26.6
				C207.1,32.6,206.4,33.2,205.6,33.2z"/>
			<path class="st4" d="M170.8,30h16.6c0.6,0,0.8-0.7,0.4-1.1l-7.6-7.4c-0.6-0.6-1.7-0.6-2.3,0l-7.6,7.4
				C169.9,29.3,170.2,30,170.8,30z"/>
			<path class="st4" d="M186.2,25.3l4.4,4.4h12.8v-7.9c0-0.2-0.1-0.3-0.2-0.4l-6.3-6.3c-0.7-0.7-1.7-0.6-2.4,0.1
				c-2.2,2.5-7.1,7.8-8.4,9.3C186,24.7,186,25.1,186.2,25.3z"/>
			<circle class="st5" cx="177.4" cy="13.1" r="3.2"/>
		</g>
		<g>
			<path class="st5" d="M45.6,406.3H-10c-1.1,0-2.1-0.9-2.1-2.1v-20.2c0-1.1,0.9-2.1,2.1-2.1h55.6c1.1,0,2.1,0.9,2.1,2.1v20.2
				C47.7,405.4,46.7,406.3,45.6,406.3z"/>
			<line class="st2" x1="23.7" y1="396.8" x2="40" y2="396.8"/>
			<line class="st2" x1="23.7" y1="392" x2="40" y2="392"/>
			<path class="st6" d="M17.3,397.6H-1.4c-1,0-1.8-0.8-1.8-1.8v-2.9c0-1,0.8-1.8,1.8-1.8h18.7c1,0,1.8,0.8,1.8,1.8v2.9
				C19.1,396.8,18.3,397.6,17.3,397.6z"/>
		</g>
		<g>
			<path class="st3" d="M431.9,462.2h-49.3c-1,0-1.8-0.8-1.8-1.8v-32.7c0-1,0.8-1.8,1.8-1.8h49.3c1,0,1.8,0.8,1.8,1.8v32.7
				C433.7,461.4,432.9,462.2,431.9,462.2z"/>
			<path class="st4" d="M389,458.2h20.4c0.7,0,1-0.8,0.5-1.3l-9.3-9c-0.8-0.8-2-0.8-2.8,0l-9.3,9C388,457.4,388.4,458.2,389,458.2z"
				/>
			<path class="st4" d="M408.1,452.4l5.4,5.4h15.7v-9.7c0-0.2-0.1-0.4-0.2-0.5l-7.7-7.7c-0.8-0.8-2.1-0.8-2.9,0.1
				c-2.8,3-8.7,9.5-10.3,11.5C407.8,451.7,407.8,452.2,408.1,452.4z"/>
			<circle class="st5" cx="397.2" cy="437.5" r="4"/>
		</g>
		<g>
			<path class="st5" d="M355,287.2l-3.1,25.8l-20.1,165.5c0,0-14.4,23.6-18.3,24.9c-3.9,1.3-20.4-23.6-20.4-23.6s1.4-32.1,8.4-104.4
				c2.2-22.4,6.7-49.9,9-64.7c3.7-24.1,4.9-28.7,4.9-28.7L355,287.2z"/>
			<g>
				<path class="st7" d="M331.8,478.6c0,0-14.4,23.6-18.3,24.9c-3.9,1.3-20.4-23.6-20.4-23.6l7,3.7c1.1,0.6,2.4,0.7,3.6,0.2l8.5-3.1
					l7.9,2.6c1.2,0.4,2.5,0.3,3.5-0.3L331.8,478.6z"/>
			</g>
			<path class="st8" d="M355,287.2l-3.1,25.8c0,0-9.9,2-22.3,1.2c-10.3-0.7-19.1-3.5-19.1-3.5c3.7-24.1,4.9-28.7,4.9-28.7
				s7.3,1.5,20.6,3.1C349.2,286.6,355,287.2,355,287.2z"/>
			<path class="st9" d="M342.2,259.1c8.2,1.1,12.7,2.6,13.8,5.3c1.1,2.8-0.9,22.8-0.9,22.8s-35.1-0.5-39.7-5.2
				c-4.6-4.8,0.1-17.4,2.8-19.9C321.6,258.8,325.1,256.8,342.2,259.1z"/>
			<path class="st5" d="M355,287.2"/>
			<path class="st2" d="M293.1,479.9c0,0,8.3,13.4,14.8,20c2.2,2.2,4.2,3.6,5.6,3.6c1.4-0.1,3.3-1.6,5.3-4c6-7,13-20.9,13-20.9"/>
			<path class="st10" d="M318.8,499.5c-2,2.3-3.8,3.9-5.3,4c-1.4,0.1-3.4-1.4-5.6-3.6c0,0,1.6-2,5.4-1.7
				C317.2,498.5,318.8,499.5,318.8,499.5z"/>
			<path class="st2" d="M320.1,483.3c0,0,13.8-120.2,18.2-146.7"/>
			<line class="st2" x1="304.3" y1="465.3" x2="318.5" y2="319.2"/>
			<polyline class="st2" points="303.7,483.8 312.2,480.7 320.9,483.9 			"/>
			<path class="st2" d="M317.5,311.9c0,0,11.3,4.3,34.4,1.1"/>
			<path class="st2" d="M333.5,299c0,0,15.5,1.1,23.3-0.2"/>
			<path class="st2" d="M318.5,284.4c0,0,11.2,3.7,30.9,2.7"/>
		</g>
		<g>
			<path class="st11" d="M311,362.7l55.4-29.7c1.8-0.9,4,0.1,4.4,2l8.9,40.4l34.6,14.6c2.2,0.9,2.5,3.9,0.6,5.3l-51.7,36.3
				c-0.9,0.6-2,0.7-3,0.3l-39.9-17.7L309.4,366C309.1,364.7,309.8,363.3,311,362.7z"/>
			<line class="st2" x1="326.5" y1="409.7" x2="376.9" y2="378.1"/>
			<line class="st2" x1="336" y1="414.8" x2="384.6" y2="383.1"/>
			<line class="st2" x1="345.5" y1="419.5" x2="394.8" y2="385.9"/>
			<polygon class="st4" points="314.9,366.6 323.4,403.2 374.3,373 366.5,339.5 			"/>
			<path class="st10" d="M377.6,415.9c-1.9-1.2-10.4-6-10.4-6l18.8-12.7l10.1,5.7L377.6,415.9z"/>
		</g>
		<g>
			<path class="st6" d="M175.7,279c0,0-39.5,74.4-40,88.8s53,93.8,56.7,98l21.1-7.7l-2.1-52.6l-12.2-32.6l12.2-21.8l-0.9-31.1
				L175.7,279z"/>
			<path class="st6" d="M203.7,310.1l6.5,8.8c0,0,0.9,132,4.2,151.1l41.7-2.6c0,0,16.7-162.5,17.7-182.9c0,0-43.6,12.6-98.5-6.5
				L203.7,310.1z"/>
			<path class="st10" d="M188.3,283.1c0,0,31.4,16.1,52.8,15.4s33.4-14,33.4-14L188.3,283.1z"/>
			<path class="st12" d="M291.5,270.6c-2,0.7-7,4-8.6,2.8c-1.7-1.3-1.7-4.2,2.8-7c4.4-2.8,12.9-8.4,14-7.9
				C300.7,259,291.5,270.6,291.5,270.6z"/>
			<path class="st13" d="M165.3,132.3c0,0,28,5.2,61.3,16.1l25.8,3.8c0,0,43.7,6.6,56.7,21.2c0,0,17.6,19.5,21.6,32.5l-34.9,18.6
				l-10.3-17.3l-11.6,77.2c0,0-45.4,17.8-113.7-9.1l17.5-94.3c0,0-21.6-4-25.6-8.6C152.1,172.4,157.6,145.8,165.3,132.3z"/>
			<path class="st12" d="M174.8,48.1c-2.6-1.3-6.1,3.4-8.8,7.6s-8.4,13.9-8.4,13.9s-20.4,14.7-36.8,34c-10,11.7-18.6,22.1-23.8,36.7
				c0,0,22.6,21.8,56.1,28.9l12.3-36.7l-17.1-5.4c0,0,28.2-34.7,31.8-37.7c0,0,2.2,0.5,10.5-0.8c8.3-1.4,11.8-2.7,11.8-4.2
				c0-1.5-0.7-3.7-10.5-3.2l-2-2.5c0,0,15.2-15.4,16.2-17.4s-1-2.9-7.1-1c-6.1,1.9-9.1,4.7-9.1,4.7s4.1-5.9,6.9-10.1
				c2.9-4.2,1.4-5.4-0.2-5.4s-12.4,8.6-15.3,12.9c0,0,9.2-15.1,7.2-16.4S177,53,172.1,59.8C172.1,59.8,177.2,49.2,174.8,48.1z"/>
			<path class="st2" d="M96.9,140.1c0,0,22.6,21.8,56.1,28.9"/>
			<path class="st12" d="M301.5,306.5c-3.1,1.6-9.2-9-10.6-13.7c-1.4-4.7-1.2-17.5-0.2-22.3c0.8-3.9,2.5-7.6,8.2-12.8
				c2.6-2.4,6.3-5.5,10.5-8.4c0,0-10.4-18.4-14.2-25.7l18.4-9.5l16.7-8.6c0,0,23.4,40.8,20.5,45.3c-2.8,4.5-33,19.8-33,19.8l1.7,9.4
				c0,0,9.9,11.6,8.7,13.5s-9-1.9-12.7-6.6c0,0,7.1,12,4.7,13.7c-2.4,1.7-8.7-3.1-12.7-8.7c0,0,5.2,10.4,3.3,12.7
				c-1.9,2.4-8.5-4-11.3-11.1c0,0,0.5,3.8,1.3,7.3C301.2,303.4,302.4,306,301.5,306.5z"/>
			<polyline class="st2" points="295.1,223.7 313.5,214.2 330.2,205.5 			"/>
			<path class="st2" d="M350.8,250.8c-2.8,4.5-33,19.8-33,19.8l1.7,9.4c0,0,9.9,11.6,8.7,13.5c0,0-3,3.1-12-6.1"/>
			<path class="st2" d="M290.6,270.6c0.8-3.9,2.5-7.6,8.2-12.8"/>
			<path class="st12" d="M227.9,101.4c-11.8,32.6-2.4,41.1-2.4,41.1l1.1,6c0,0-0.2,10,8.9,11.8c11.1,2.3,16.9-8,16.9-8l2.4-5.6
				c0,0,12-5.8,12.2-37.3c0,0-4.2-7.1-18.8-9.6S227.9,101.4,227.9,101.4z"/>
			<path class="st10" d="M253.3,102.1l13.8,7.4l-3.3,15.9l2.6,0.2l5.4-15.6c0,0,9.6-8.2-1.2-15.7c-7.4-5.2-11.5,0.9-11.5,0.9
				L253.3,102.1z"/>
			<path class="st10" d="M236.7,88.1c-3.5-1.3-17.2,0.7-13.1,15.3c0,0-1.3,8.9-1.3,13.1c0,4.6,3.2,3.9,3.2,1.4
				c0-0.2,3.2-15.2,3.2-15.2l8.4-2.1L236.7,88.1z"/>
			<path class="st10" d="M242.5,80c-7,2.7-8.2,20.5-8.2,20.5l21.1,1.9c0,0,8.6-9.2,5.8-14.9C258.4,81.7,251.9,76.3,242.5,80z"/>
			<path class="st12" d="M225.2,117c-0.4-3.2-3.1-5.6-4.6-4c-1.5,1.7-3.1,11.6,1.7,12.5C222.3,125.6,225.9,123.1,225.2,117z"/>
			<path class="st12" d="M263.3,134.1c3.5,1.3,8-4.1,7.2-8.3s-4.1-5-5.4-1.7C263.8,127.4,263.3,134.1,263.3,134.1z"/>
			<path class="st2" d="M309.2,249.4c0,0,9.8-9.4,18.3-10"/>
			<path class="st2" d="M176.8,78.3c0,0,6.6-8.1,15.1,2.7"/>
			<path class="st2" d="M134.5,121.9c0,0,8-1.4,13.7,5.1"/>
			<path class="st2" d="M177.7,181.1c0,0,3.3-18.1,9.1-27.9"/>
			<path class="st2" d="M315.4,286.9c0,0,7.1,11.7,4.7,13.7c0,0-5.5,3.1-12.7-8.7c0,0,6.7,11.6,3.3,12.7
				c-3.4,1.1-11.3-11.1-11.3-11.1s4.2,9.7,2.1,13c-2,3.3-10.6-13.7-10.6-13.7"/>
			<path class="st10" d="M224,113.9l-1.7,11.7c0,0-4.7,14.5,3.2,16.9c8.9,2.7,21.4,6.3,27.9,5.7c4.8-0.4,9.7-2.6,9.8-14.1l2.9-11.5
				c0,0-1-0.2-3.1,2.7c-3,4.1-7,14.2-12.9,14c-5-0.2-14.8-1.9-19.5-6.7c-2-2-4.1-11.9-4.7-16.1C225.5,113.5,224,113.9,224,113.9z"/>
			<path class="st2" d="M175.4,278c0,0-39.5,74.4-40,88.8c-0.5,14.4,53,93.8,56.7,98l21.1-7.7"/>
			<path class="st2" d="M203.7,310.1l6.5,8.8c0,0,0.2,14.6,0.4,30.7c0.5,39.7,1.5,106.8,3.8,120.4l41.7-2.6
				c0,0,16.7-162.5,17.7-182.9"/>
			<polyline class="st2" points="211.8,405.2 198.9,371.9 210.1,350.7 			"/>
			<path class="st14" d="M197.8,462.9l1.8,11l-6.4,4.4c0,0-11.5,5.9-6.8,9.9s27.9,0.7,27.9,0.7l-1.1-31.9L197.8,462.9z"/>
			<path class="st10" d="M214.7,490l53.3,0.9c3.5-0.2,4.8-4.6,2-6.7c-0.8-0.6-1.6-1.2-2.6-1.7c-5.1-2.7-20-5.8-21.7-5.6
				c1.3-3.7,0.8-6.4,1.1-9.5l-32.4,2.6L214.7,490z"/>
			<path class="st2" d="M220.4,148c0,4.6,0.3,14.6,13.6,17.5c13.2,2.9,19.6-3.6,22.8-9.3"/>
			<line class="st2" x1="285.5" y1="207.4" x2="282.9" y2="182.3"/>
			<path class="st2" d="M190.4,365.9c2.9,1.3,5.9,3.2,8.5,6"/>
			<path class="st10" d="M210.6,349.6c-0.2-16.1-0.4-30.7-0.4-30.7l-6.5-8.8"/>
			<path class="st10" d="M301.7,236c3.8,6.9,7.5,13.4,7.5,13.4c2.1-1.5,3.2-3,5.8-5.3c0,0-3.5-0.5-6.5-2.7
				C304.3,238.2,300.2,233.3,301.7,236z"/>
			<path class="st15" d="M245.6,476.9c0,0-6.9-5.2-15.8-0.4"/>
			<path class="st15" d="M202.2,474.5c0,0,6.5-3.4,12,0"/>
			<line class="st15" x1="214.5" y1="472.8" x2="215.2" y2="485.8"/>
			<polyline class="st2" points="244.9,116.6 241.4,124.4 247,125.3 			"/>
			<path class="st10" d="M231.8,138.5c0,0,3.8-8.1,6.1-9.1c2.3-0.9,10.2,0.5,11.8,1.8s2.9,10.6,2.9,10.6l-4.1,0.5l-1.8-7.9l-7.7-1.8
				l-2.9,6.6L231.8,138.5z"/>
			<path class="st2" d="M233.1,114c0,0,1.8-3.1,4.9-0.3"/>
			<path class="st2" d="M254.8,117.2c0,0,2.7-1.9,4.2,1.7"/>
		</g>
		<g>
			<path class="st13" d="M483.5,120.2h-72.8c-0.9,0-1.6-0.7-1.6-1.6v-15.6c0-0.9,0.7-1.6,1.6-1.6h72.8c0.9,0,1.6,0.7,1.6,1.6v15.6
				C485.1,119.4,484.4,120.2,483.5,120.2z"/>
			<line class="st2" x1="446.8" y1="112.8" x2="479.2" y2="112.8"/>
			<line class="st2" x1="446.8" y1="109.1" x2="479.2" y2="109.1"/>
			<path class="st6" d="M441.8,113.4h-24.4c-0.8,0-1.4-0.6-1.4-1.4v-2.2c0-0.8,0.6-1.4,1.4-1.4h24.4c0.8,0,1.4,0.6,1.4,1.4v2.2
				C443.2,112.8,442.6,113.4,441.8,113.4z"/>
		</g>
		<line class="st2" x1="131.9" y1="490.4" x2="287.1" y2="490.4"/>
		<g>
			<path class="st16" d="M275.7,68.8l-0.8-6.9h-11.3c-3.7,0-6.6-3-6.6-6.6V31.8c0-3.7,3-6.6,6.6-6.6h32.5c3.7,0,6.6,3,6.6,6.6v23.3
				c0,3.7-3,6.6-6.6,6.6h-12.8L275.7,68.8z"/>
			<polyline class="st17" points="273.1,52.9 266.9,52.9 266.9,38.9 272.8,38.9 			"/>
			<path class="st2" d="M275.4,30.1L275.4,30.1c1.3,0,2.4,1.1,2.4,2.4v5.2h8.1c2,0,3.6,1.6,3.6,3.6v7.9c0,2-1.6,3.6-3.6,3.6h-12.8
				L273,32.5C273,31.2,274,30.1,275.4,30.1z"/>
		</g>
		<g>
			<path class="st9" d="M65.3,106.2H0.8v-0.1c0-2.6,2.1-4.8,4.8-4.8h55C63.2,101.4,65.3,103.5,65.3,106.2L65.3,106.2z"/>
			<path class="st16" d="M65.3,106.2H0.8v50.6c0,1.5,1.2,2.7,2.7,2.7h59.1c1.5,0,2.7-1.2,2.7-2.7L65.3,106.2z"/>
			<rect x="7.4" y="113.8" class="st10" width="30.4" height="3.9"/>
			<line class="st2" x1="8.1" y1="122" x2="57" y2="122"/>
			<line class="st2" x1="19" y1="130.2" x2="55.1" y2="130.2"/>
			<line class="st2" x1="19" y1="138.7" x2="55.1" y2="138.7"/>
			<line class="st2" x1="19" y1="147" x2="55.1" y2="147"/>
			<circle class="st9" cx="12.4" cy="130.8" r="2.1"/>
			<circle class="st9" cx="12.4" cy="139.1" r="2.1"/>
			<circle class="st9" cx="12.4" cy="147.2" r="2.1"/>
		</g>
		<polyline class="st2" points="358.9,166.7 364.3,167.7 364.2,173 370.2,173.7 370.1,179.7 		"/>
		<polyline class="st2" points="-9.3,339.7 -5.7,344.6 -0.9,341.6 2.6,346.8 		"/>
		<polyline class="st2" points="577.6,35.1 581.2,40 585.9,37 589.4,42.2 		"/>
		<polyline class="st2" points="6.7,61 10.3,65.9 15.1,62.9 18.6,68.1 		"/>
		<polyline class="st2" points="473.1,411.8 477.1,416.3 481.6,412.9 485.5,417.7 		"/>
		<polyline class="st2" points="102.7,117.3 96.9,119.2 98.2,124.6 92.2,126.2 		"/>
		<g>
			<path class="st17" d="M155,282.3H60.9c-1.1,0-2.1-0.9-2.1-2.1V260c0-1.1,0.9-2.1,2.1-2.1H155c1.1,0,2.1,0.9,2.1,2.1v20.2
				C157.1,281.4,156.2,282.3,155,282.3z"/>
			<line class="st2" x1="107.6" y1="272.8" x2="149.4" y2="272.8"/>
			<line class="st2" x1="107.6" y1="268" x2="149.4" y2="268"/>
			<path class="st6" d="M101.1,273.6H69.5c-1,0-1.8-0.8-1.8-1.8v-2.9c0-1,0.8-1.8,1.8-1.8h31.6c1,0,1.8,0.8,1.8,1.8v2.9
				C102.9,272.8,102.1,273.6,101.1,273.6z"/>
		</g>
		<g>
			<path class="st5" d="M455.7,331.1h-35.9c-0.7,0-1.2-0.5-1.2-1.2v-21.1c0-0.7,0.5-1.2,1.2-1.2h35.9c0.7,0,1.2,0.5,1.2,1.2v21.1
				C456.9,330.5,456.4,331.1,455.7,331.1z"/>
			<polyline class="st2" points="423.7,311.7 437.9,322 453.2,311.7 			"/>
			<line class="st16" x1="422.6" y1="327.1" x2="432.4" y2="318.2"/>
			<line class="st16" x1="445" y1="317.6" x2="453.8" y2="328.2"/>
		</g>
		<g>
			<path class="st16" d="M-13.1,287.2l-23.1,0.7c-0.4,0-0.8-0.3-0.8-0.7l-0.4-13.6c0-0.4,0.3-0.8,0.7-0.8l23.1-0.7
				c0.4,0,0.8,0.3,0.8,0.7l0.4,13.6C-12.4,286.8-12.7,287.2-13.1,287.2z"/>
			<polyline class="st2" points="-34.1,275.4 -24.7,281.7 -15.1,274.8 			"/>
			<line class="st16" x1="-34.5" y1="285.3" x2="-28.4" y2="279.4"/>
			<line class="st16" x1="-20.3" y1="278.7" x2="-14.4" y2="285.4"/>
		</g>
		<g>
			<path class="st18" d="M131.5,490.5c-12.4,0-18.9-28-10.3-27.5C129.8,463.6,139.5,490.5,131.5,490.5z"/>
			<g>
				<path class="st2" d="M143.3,490.2c0,0,0.8-21.9-15-32.2c-21.6-14.1-27-21-12.7-25.5c14.2-4.5,31.2,4,36.7,23.2
					c3.4,11.9-2.2,34.5-2.2,34.5"/>
				<path class="st2" d="M115.5,432.4c0,0,18.1,7.9,24.3,18.3c10.6,17.9,7.6,39.4,7.6,39.4"/>
				<line class="st2" x1="140.6" y1="452.2" x2="141.5" y2="439.4"/>
				<line class="st2" x1="143.4" y1="456.3" x2="145.2" y2="443.7"/>
				<line class="st2" x1="107.7" y1="438.9" x2="126" y2="438.9"/>
				<line class="st2" x1="138.3" y1="467.5" x2="147" y2="472.5"/>
				<path class="st2" d="M154.2,490.1c0,0,0.9-6.8,6.3-9.2"/>
			</g>
			<line class="st2" x1="121.9" y1="466.9" x2="131.6" y2="490"/>
		</g>
		<g>
			<g>
				<path class="st19" d="M309.5,137.9c0,0,3.2-4.1,4.8-5.7c5.1-5.1,11.3-6.1,14.1-11.8c2.8-5.8-1.3-19.6-15.2-18.1
					c-11.9,1.2-12.3,13.6-12.2,19c0.1,5.4-2.7,9.6-2.7,9.6s2.3-0.9,6.5,2.2C308.9,136.2,309.5,137.9,309.5,137.9z"/>
				<path class="st2" d="M309.5,137.9c0,0-3.7,6.3-10,2.6s-1.2-9.5-1.2-9.5s2.5-0.5,6.5,2.2C308.8,135.9,309.5,137.9,309.5,137.9z"
					/>
				<line class="st2" x1="301.7" y1="131.4" x2="306.7" y2="119.4"/>
				<line class="st2" x1="307" y1="134.1" x2="316.4" y2="124.4"/>
				<path class="st2" d="M306.5,120.6c0,0,2.4,1.7,5.9-0.5c0,0-0.8,5.7,2.5,5.7"/>
				<path class="st2" d="M296.9,134.9c0,0,6.7-0.9,9.9,6"/>
			</g>
			<path class="st15" d="M321.4,107.9c0,0,5.5,3.7,4.2,10.2"/>
		</g>
		<circle class="st2" cx="334.9" cy="193.4" r="3.1"/>
		<circle class="st2" cx="119.2" cy="395.3" r="3.1"/>
		<circle class="st2" cx="355.6" cy="458.5" r="3.1"/>
		<circle class="st10" cx="356.1" cy="32.9" r="1.9"/>
		<circle class="st10" cx="536.3" cy="270.6" r="1.9"/>
		<circle class="st2" cx="571.1" cy="443.1" r="3.1"/>
		<circle class="st2" cx="37.9" cy="303.5" r="3.1"/>
		<circle class="st2" cx="-44.2" cy="126.6" r="3.1"/>
		<circle class="st2" cx="195.6" cy="118.2" r="3.1"/>
		<polygon class="st2" points="425.9,336.9 440.2,327.2 439,344.9 434,338 		"/>
		<g>
			<path class="st4" d="M104.5,32.7H69.8c-1,0-1.9,0.8-1.9,1.9V36h38.5v-1.5C106.4,33.5,105.5,32.7,104.5,32.7z"/>
			<path class="st16" d="M105.2,71.9h-36c-0.7,0-1.2-0.5-1.2-1.2V36h38.5v34.6C106.4,71.3,105.8,71.9,105.2,71.9z"/>
			<path class="st4" d="M101.7,54.4H73.1c-0.4,0-0.7-0.3-0.7-0.7v-12c0-0.4,0.3-0.7,0.7-0.7h28.6c0.4,0,0.7,0.3,0.7,0.7v12
				C102.4,54.1,102.1,54.4,101.7,54.4z"/>
			<line class="st2" x1="101.7" y1="65.6" x2="73.1" y2="65.6"/>
			<line class="st2" x1="101.7" y1="59.2" x2="73.1" y2="59.2"/>
		</g>
		<g>
			<rect x="356.2" y="117.5" class="st2" width="13.3" height="13.3"/>
			<rect x="369.5" y="104.9" class="st17" width="13.3" height="13.3"/>
		</g>
		<g>
			<polygon class="st2" points="74.2,353 83.4,353 83.4,362.4 74.2,362.3 			"/>
			
				<rect x="64.9" y="361.9" transform="matrix(-1 -1.224647e-16 1.224647e-16 -1 139.0363 733.0623)" class="st9" width="9.3" height="9.3"/>
		</g>
		<g>
			<polygon class="st2" points="556.3,60.2 565.5,60.2 565.5,69.5 556.3,69.5 			"/>
			
				<rect x="547" y="69" transform="matrix(-1 -1.224647e-16 1.224647e-16 -1 1103.2079 147.334)" class="st9" width="9.3" height="9.3"/>
		</g>
		<g>
			<path class="st4" d="M456.2,54.7h-13.4c-4.7,0-8.5-3.8-8.5-8.5V32.8c0-4.7,3.8-8.5,8.5-8.5h13.4c4.7,0,8.5,3.8,8.5,8.5v13.4
				C464.7,50.9,460.9,54.7,456.2,54.7z"/>
			<g>
				<g>
					<path class="st6" d="M442.2,41.7c1.5,1.5,3,3,4.5,4.5c0.4,0.4,1.1,0.4,1.5,0c3-3,5.9-5.9,8.9-8.9c0.4-0.4,0.8-0.8,1.3-1.3
						c1-1-0.5-2.5-1.5-1.5c-3,3-5.9,5.9-8.9,8.9c-0.4,0.4-0.8,0.8-1.3,1.3c0.5,0,1,0,1.5,0c-1.5-1.5-3-3-4.5-4.5
						C442.8,39.2,441.2,40.8,442.2,41.7L442.2,41.7z"/>
				</g>
			</g>
		</g>
		<line class="st2" x1="427.2" y1="152" x2="443.9" y2="152"/>
		<line class="st2" x1="55.4" y1="462.5" x2="72" y2="462.5"/>
		<line class="st2" x1="446.2" y1="371.7" x2="458.2" y2="371.7"/>
		<g>
			<path class="st16" d="M475.9,280.4h-88.2c-3.1,0-5.7-2.5-5.7-5.7v-29.1l-13.5-8.6l13.5-7.2v-29.1c0-3.1,2.5-5.7,5.7-5.7h88.2
				c3.1,0,5.7,2.5,5.7,5.7v73.9C481.6,277.8,479,280.4,475.9,280.4z"/>
			<path class="st17" d="M467.3,267.1h-70.4c-1,0-1.8-0.8-1.8-1.8v-56.1c0-1,0.8-1.8,1.8-1.8h70.4c1,0,1.8,0.8,1.8,1.8v56.1
				C469.1,266.4,468.3,267.1,467.3,267.1z"/>
			<path class="st9" d="M441.4,253.5c0,0,21.4,2.3,24.5,13.7h-67.7c0,0,12.3-13.7,27.7-13.7S441.4,253.5,441.4,253.5z"/>
			<path class="st7" d="M425,214.1c-2.7,2.2-9.9,16.7-9.2,24.3s11.1,9.5,11.1,9.5l-1.5,5.4l-0.1,3.8c-0.1,2.5,2.4,4.3,4.8,3.5
				l11.2-4l4.7-14.6c0,0,9.2-20.5,5.5-24.3S433.2,207.3,425,214.1z"/>
			<path class="st10" d="M421.9,218.3c-5.1-1.8-10.5-7.2-4.5-14.5c3.7-4.5,14.9-1.9,18.7,1.6c5.1,4.6,8.1,8.6,15.7,7.6
				c4.1-0.5,7.3,2.1,6.1,6.6c-1.2,4.7-9.6,27.2-14,27.5c-2,0.2-1.2,0.5-2.5-0.3c-1.5-1,2.1-8.4,2.1-8.4l4.3-11.3L421.9,218.3z"/>
			<path class="st7" d="M445,232.4c0,0,3.4-1.8,4.3,1.8c1.1,4.5-5.3,7.2-6.8,6.2C441,239.3,445,232.4,445,232.4z"/>
			<path class="st10" d="M428.3,219.2c-3.2,0.3-5.1,3.6-1.3,4.3c3.8,0.6,11.7,0.7,11.7,0.7L428.3,219.2z"/>
			<path class="st2" d="M433.6,231.7c0,0,2.7-1.7,3.7,1"/>
			<path class="st2" d="M419.5,228.1c0,0,2.4-2.9,2.9,0.5"/>
			<polyline class="st2" points="425.6,229.3 421.9,234.2 424.4,234.9 			"/>
			<path class="st2" d="M424.9,238.8c0,0,3.3,2.6,6.3,0"/>
		</g>
		<g>
			<path class="st5" d="M471.1,203.3l-7.7,8L436,237.4c0,0-3.9,11.1-3.3,12.7c0.6,1.6,13.3,0.4,13.3,0.4s10.2-9.1,32.3-30.8
				c6.8-6.7-7.1,9.4-2.9,4.6c6.9-7.7,8.2-9.3,8.2-9.3L471.1,203.3z"/>
			<g>
				<path class="st7" d="M436,237.4c0,0-3.9,11.1-3.3,12.7c0.6,1.6,13.3,0.4,13.3,0.4l-3.1-1.3c-0.5-0.2-0.9-0.6-1-1.1l-1.2-3.6
					l-3-1.9c-0.4-0.3-0.8-0.7-0.8-1.3L436,237.4z"/>
			</g>
			<path class="st8" d="M471.1,203.3l-7.7,8c0,0,2,3.8,5.6,7.7c3,3.2,6.3,5.4,6.3,5.4c6.9-7.7,8.2-9.3,8.2-9.3s-2.5-2-6.5-6
				S471.1,203.3,471.1,203.3z"/>
			<path class="st9" d="M483.9,200c-2.6-2.4-4.2-3.5-5.5-3.1c-1.2,0.4-7.3,6.4-7.3,6.4s9.6,11.5,12.4,11.7c2.8,0.2,5.7-4.7,5.8-6.3
				C489.5,206.7,489.2,205,483.9,200z"/>
			<path class="st5" d="M471.1,203.3"/>
			<path class="st2" d="M446,250.5c0,0-6.6,0.9-10.6,0.5c-1.3-0.1-2.3-0.4-2.7-0.9c-0.4-0.5-0.3-1.5-0.1-2.8
				c0.7-3.9,3.4-9.9,3.4-9.9"/>
			<path class="st10" d="M432.6,247.3c-0.2,1.3-0.3,2.3,0.1,2.8c0.4,0.5,1.4,0.8,2.7,0.9c0,0,0.2-1.1-0.9-2.2
				C433.3,247.6,432.6,247.3,432.6,247.3z"/>
			<path class="st2" d="M437.6,242.5c0,0,14.2-11.9,21.8-20.4"/>
			<line class="st2" x1="447.8" y1="242.9" x2="470.4" y2="224"/>
			<polyline class="st2" points="441.8,248.1 440.6,244.4 437.2,242.4 			"/>
			<path class="st2" d="M473,222.4c0,0-4.5-2.6-9.6-11.1"/>
			<path class="st2" d="M473,213.6c0,0-4.5-4.8-6.2-7.8"/>
			<path class="st2" d="M481.9,214.6c0,0-4.2-2.7-9.2-9.5"/>
		</g>
		<circle class="st10" cx="1.5" cy="208.8" r="4"/>
		<circle class="st10" cx="134.3" cy="205.2" r="4"/>
		<circle class="st10" cx="105.8" cy="332.4" r="4"/>
		<circle class="st10" cx="547.3" cy="172" r="4"/>
		<circle class="st10" cx="558.3" cy="353.4" r="4"/>
		<line class="st2" x1="-3.6" y1="175.3" x2="8.1" y2="244.6"/>
		<polygon class="st10" points="-31.5,224.7 -17.2,215.1 -18.4,232.7 -23.4,225.8 		"/>
		<g>
			<polyline class="st17" points="520,417.7 513.1,417.7 513.1,403.8 519.6,403.8 			"/>
			<path class="st2" d="M522.5,395L522.5,395c1.5,0,2.6,1.1,2.6,2.4v5.2h9c2.2,0,4,1.6,4,3.6v7.9c0,2-1.8,3.6-4,3.6H520l-0.1-20.3
				C519.9,396.1,521.1,395,522.5,395z"/>
		</g>
		<g>
			<polyline class="st17" points="-92,120.5 -96.8,120.5 -96.8,109.7 -92.2,109.7 			"/>
			<path class="st2" d="M-90.2,102.9L-90.2,102.9c1,0,1.8,0.8,1.8,1.8v4h6.3c1.6,0,2.8,1.3,2.8,2.8v6.1c0,1.6-1.3,2.8-2.8,2.8H-92
				l0-15.8C-92,103.7-91.2,102.9-90.2,102.9z"/>
		</g>
	</g>
</g>
</svg>
