<?xml version="1.0" encoding="utf-8"?>
<!-- Generator: Adobe Illustrator 26.0.1, SVG Export Plug-In . SVG Version: 6.00 Build 0)  -->
<svg version="1.0" xmlns="http://www.w3.org/2000/svg" xmlns:xlink="http://www.w3.org/1999/xlink" x="0px" y="0px"
	 viewBox="0 0 500 1008.9" style="enable-background:new 0 0 500 1008.9;" xml:space="preserve">
<style type="text/css">
	.st0{display:none;}
	.st1{display:inline;fill:#EBEBEB;}
	.st2{fill:#407BFF;}
	.st3{fill:#FFC3BD;}
	.st4{fill:#263238;}
	.st5{opacity:0.2;}
	.st6{fill:#ED847E;}
	.st7{opacity:0.7;fill:#FFFFFF;}
	.st8{opacity:0.2;fill:#407BFF;}
</style>
<g id="Background_Complete">
</g>
<g id="Background_Simple" class="st0">
	<path class="st1" d="M433.4,94.4l-2.5-4.1c-20.1-32.6-56.2-52.4-94.4-50.4c-5.4,0.3-10.7,1-16,2.1c-35.2,7.4-65.8,33.7-78.5,67.3
		c-7.5,19.8-9.5,42.6-23.7,58.3c-18.4,20.4-49.7,21.1-77.2,20.2c-27.5-0.8-58.8-0.1-77.2,20.4c-11.5,12.9-15.1,31.1-14.2,48.3
		c2.5,45.6,34.6,86.3,75.5,106.6c40.9,20.3,89,22.1,133.8,13.2c62.7-12.5,122.3-46.8,158.2-99.7C453,223.7,462.1,151.6,433.4,94.4z"
		/>
	<path class="st1" d="M179.6,105.7c-9.9-9.9-27.3-16.8-39.1-9.3l1.7-0.9c-12.5,6.2-20.6,20.4-19.3,34.3c1.3,13.9,12,26.5,25.6,29.8
		c13.6,3.3,29-3.2,36-15.2C191.5,132.2,189.5,115.5,179.6,105.7z"/>
</g>
<g id="Floor">
</g>
<g id="Screens">
</g>
<g id="Character">
</g>
<g id="Plant">
</g>
<g id="Devices">
</g>
<g id="Desk">
	<g>
		<path class="st2" d="M85.7,948c24.2,0,48-6,59.5-23.9c54.6-85.2,54.1-257,53.7-423c-0.3-89.4-6.2-173.8,2.1-239.4
			c4.9-38.7,21.9-65.2,39.2-79c25.6-20.2,60.8-9.4,75.8-4.7c7.8,2.4,15.8-3.2,17.8-12.5c2-9.3-2.7-18.9-10.5-21.3
			c-18.8-5.8-62.8-19.4-99.2,9.4c-24.6,19.4-45.8,54-52,102.9c-8.7,68.3-2.7,154-2.5,244.8c0.5,160.2,0.9,325.9-47.6,401.7
			c-3.9,6.1-19.3,11.6-44.6,10c-2.2-0.1-4.5-0.3-6.6-0.5c0.9-2.3,1.5-4.9,1.5-7.6c0-9.6-6.5-17.5-14.6-17.5
			c-31.9,0-48.7,3.2-52,20.7c-0.9,5-1.4,17.6,14,26.2C31.2,940.6,58.7,948,85.7,948z"/>
		<g>
			<g>
				<polygon class="st3" points="405.5,963.1 435.3,949.1 419.6,887.3 389.8,901.3 				"/>
				<path class="st4" d="M436,945.3l-33.6,15.8c-0.9,0.4-1.4,1.5-1.3,2.6l3.3,25c0.3,2.6,2.7,4.1,4.7,3.1c8.4-4.2,21.6-11,32.3-16.1
					c6.6-3.1,19.1-8,28.2-12.3c8.9-4.2,6.7-15.6,2.7-14.8c-18.1,3.5-25-0.2-32.3-3.4C438.7,944.7,437.3,944.7,436,945.3z"/>
				<g>
					<polygon class="st5" points="389.8,901.4 419.6,887.4 427.7,919.2 397.8,933.2 					"/>
				</g>
				<path class="st2" d="M352.5,423.5c0,0,27,159.3,37.3,237.8c11.6,88.1,42.2,248.9,42.2,248.9l-39.6,18.6
					c0,0-56.6-164.7-64.5-244.4c-23.8-64.8-71-255.5-71-255.5L352.5,423.5z"/>
				<polygon class="st4" points="433.9,910.6 390.4,931 382.9,915.2 431.6,891.2 				"/>
				<path class="st2" d="M438.6,947.7c-0.2,0-0.4-0.1-0.5-0.3c-0.1-0.2-0.1-0.5,0-0.7c0.6-1,5.9-9.4,8.8-9c0.4,0.1,1.1,0.3,1.4,1.3
					c0.5,1.3,0.5,2.6,0,3.7c-0.7,1.4-2.1,2.5-3.7,3.3C442.5,946.9,440.2,947.4,438.6,947.7z M439.8,946.1c4-0.8,6.7-2.3,7.5-4.1
					c0.3-0.8,0.3-1.6,0-2.5c-0.2-0.5-0.4-0.5-0.6-0.6c-0.2,0-0.4,0-0.7,0.2C444.3,939.9,441.7,943.3,439.8,946.1z"/>
				<path class="st2" d="M438.4,947.7c-0.2,0-0.4-0.2-0.4-0.5c-0.1-0.3-2-8-0.3-11.7c0.4-0.9,1.1-1.6,1.9-1.8
					c1.3-0.4,1.9,0.4,2.2,0.8c1.4,2.7-1.1,10.4-2.8,12.9c-0.1,0.1-0.1,0.1-0.2,0.2C438.6,947.7,438.5,947.7,438.4,947.7z
					 M438.6,936.2c-1.1,2.3-0.4,7,0.1,9.3c1.6-3.1,2.9-8.6,2.1-10.2c-0.1-0.1-0.3-0.5-1-0.3c-0.1,0-0.2,0.1-0.2,0.1
					C439.2,935.3,438.9,935.7,438.6,936.2z"/>
			</g>
			<path class="st5" d="M294.3,520.1c14.9,22.1,20.8,78.5,20.8,125.5c-10.1-33.2-21.6-75.3-31.8-113.6L294.3,520.1z"/>
			<g>
				<polygon class="st3" points="226.1,969 258.1,969 262.4,904.7 230.4,904.7 				"/>
				<path class="st4" d="M260,965.8l-36.1,0c-1,0-1.8,0.8-2,1.9l-4.6,24.7c-0.5,2.6,1.2,5,3.4,4.9c9.1-0.2,23.5-0.8,35-0.8
					c7.1,0,20.2,0.9,30,0.9c9.5,0,11-11.5,7-12.6c-17.9-4.7-23.2-11.1-29-17.3C262.7,966.4,261.3,965.8,260,965.8z"/>
				<g>
					<polygon class="st5" points="230.4,904.7 262.4,904.7 260.2,937.9 228.2,937.9 					"/>
				</g>
				<path class="st2" d="M313.7,425.6c0,0-17.7,177.5-21.5,241.4c-5.2,88.9-25.3,264.5-25.3,264.5h-42.6c0,0-4.6-179.3,3.1-259.1
					c-10.6-69.6-7.3-241.5-7.3-241.5L313.7,425.6z"/>
				<polygon class="st4" points="268.6,932.5 221.9,932.5 219.8,914.6 272.4,913.5 				"/>
				<path class="st2" d="M261.6,969.2c-0.2-0.1-0.4-0.3-0.4-0.5c0-0.3,0.1-0.5,0.3-0.7c0.8-0.6,8.3-6.1,10.9-4.6
					c0.4,0.2,0.9,0.8,0.9,1.9c0.1,1.5-0.3,2.6-1.1,3.5c-1.1,1.1-2.7,1.4-4.5,1.4C265.5,970.2,263.2,969.6,261.6,969.2z M263.2,968.2
					c3.9,0.9,7,0.8,8.3-0.5c0.6-0.6,0.8-1.3,0.7-2.4c0-0.5-0.2-0.7-0.3-0.8c-0.2-0.1-0.4-0.2-0.7-0.2
					C269.4,964.4,265.8,966.4,263.2,968.2z"/>
				<path class="st2" d="M261.4,969.1c-0.2-0.1-0.3-0.4-0.2-0.6c0-0.3,0.6-8.4,3.3-11c0.7-0.7,1.5-1,2.3-0.8
					c1.3,0.2,1.7,1.2,1.8,1.7c0.5,3.1-4.2,9.2-6.6,10.7c-0.1,0.1-0.2,0.1-0.3,0.1C261.6,969.2,261.5,969.2,261.4,969.1z
					 M265.2,958.5c-1.7,1.7-2.5,6.4-2.7,8.7c2.4-2.2,5.4-6.8,5.1-8.6c0-0.2-0.1-0.6-0.8-0.7c-0.1,0-0.2,0-0.2,0
					C266,957.9,265.6,958.1,265.2,958.5z"/>
			</g>
			<g>
				<path class="st3" d="M299,180.8l0.1,0l25.7-0.4c8.6-0.1,17.2-0.3,25.7-0.5c2.6-0.1,5.1-0.2,7.7-0.3c-0.1-0.2-0.3-0.4-0.4-0.5
					c-1.8-2.3-3.6-4.7-5.5-6.9c-0.9-1.2-1.9-2.3-2.8-3.4c-0.9-1.1-1.9-2.4-2.5-3.3l-2.3-3.5c-2.7-4.1-3.7-9.5-2.5-14.9
					c2-9,9.8-14.4,17.4-12l5.1,1.6c1.6,0.6,3.1,1.2,4.7,1.8c3.1,1.3,6.1,2.7,9.1,4.3c6,3.1,11.8,6.9,17.4,11.1
					c5.6,4.3,11.1,9.2,16.3,14.8c5.3,5.6,10.1,12.2,14.6,19.4c1,1.7,2,3.6,2.7,5.6c5.3,14.6-0.2,31.5-12.4,37.9l-2.5,1.3
					c-6.9,3.6-12.2,5.3-17.5,6.9c-5.2,1.6-10.2,2.6-15,3.6c-4.9,1-9.6,1.8-14.3,2.5c-4.7,0.6-9.4,1.2-14.1,1.7
					c-9.3,1-18.5,1.5-27.7,1.8c-9.3,0.3-18.2,0.3-27.8-0.2c-15-0.8-27.1-15.5-27.3-33.7C270.5,196.5,283.2,181,299,180.8z"/>
				<path class="st4" d="M284,240.7c22.2,30.2,75.5,18.9,75.5,18.9l-2.9-75.2c0,0-26.9-7.6-55.7-7.7
					C269.7,176.6,266.3,216.5,284,240.7z"/>
			</g>
			<path class="st4" d="M343.2,217.6c1.3,12.1,2.6,28.5,3.6,50.5c11.6,69.9,15.9,119.4,5.7,155.5c-8.1,11.9-113.3,9.6-132.2,7.3
				c-10.9-32.5-12.1-125.7-13.4-204.1c-0.4-22.3,13-41.6,31.4-45.4c23.7-4.9,47.6-6.1,71.8-2.9C327.3,180.8,340.9,197,343.2,217.6z"
				/>
			<path class="st5" d="M241.1,265.2c-0.4,23.9-14.8,62.1-31.2,81.4c-1-20.2-1.6-42.1-2.1-64.1L241.1,265.2z"/>
			<g>
				<path class="st3" d="M147.9,321.9c0.3,9.3,1.8,16,3.5,22c1.7,6,3.7,11.2,5.8,16.2c2,5,4.3,9.6,6.6,13.9
					c2.3,4.4,4.6,8.7,7.1,12.8c4.9,8.2,10,15.9,15.4,23.3c5.5,7.4,10.9,14.4,17.2,21.3c5.9,6.4,15,6,20.4-1.1
					c3.9-5.1,4.8-12.3,2.7-18.3l-0.3-0.7c-2.9-8.2-6.2-16.7-9.2-24.9c-3-8.3-6-16.5-8.7-24.6c-2.8-8-5.1-16.1-6.9-23.4
					c-0.7-2.9-1.3-5.8-1.7-8.3c2.9-5.6,6.2-11.2,9.6-16.9c2.4-3.7,4.7-7.5,7.2-11.2c2.4-3.8,5-7.5,7.5-11.2
					c5.2-7.4,10.5-14.8,15.9-22.1l16.1-21.4l0.8-1.1c10.6-14,9.6-35.6-2.1-48.3c-11.3-12.2-28.6-11.5-39.3,1.1l-5.1,6.1l-4.8,6
					c-3.2,4-6.2,8.1-9.2,12.3c-5.9,8.3-11.7,16.9-17.2,25.9c-5.5,9-10.7,18.3-15.6,28.1c-4.9,9.9-9.5,20.3-13.4,31.7l-0.9,2.6
					C148.3,315,147.8,318.5,147.9,321.9z"/>
				<path class="st4" d="M236.4,181.8c-37.1,7.6-61.2,67.5-61.2,67.5l44.7,57.2c0,0,25.7-31.3,41.1-60.3
					C277.7,214.6,262.9,176.4,236.4,181.8z"/>
				<path class="st4" d="M304.1,87.3c6.2-12.4,8.2-29.6-3.1-46.9c7.5,1.4,11.3-6.4,11.3-6.4s-16.4-18.4-44.2-18.4
					c-33.3,0-35.7,15.3-34.6,25.8c-22.7,1.7-39.3,72.4,18.3,84.9C284.8,84.6,304.1,87.3,304.1,87.3z"/>
				<path class="st4" d="M235.6,42.5c0,0-9.3-11.3,2.3-25c-4.4,1.6-9.4,5.7-10.8,12.9C225.4,38.4,229.8,44.7,235.6,42.5z"/>
				<path class="st3" d="M248.3,117.5c0.9,21.7,2.5,46.5-0.5,63.9c4.7,8.9,16.8,19.1,38.5,21.4c7.7-5.2,17.9-18,14.3-24.5
					c-9.2-7.1-13.1-28.4-10.5-44.4L248.3,117.5z"/>
				<path class="st5" d="M258.9,121.6l31.3,12.2c-1.1,6.4-1.1,13.7-0.1,20.6c-9.3-0.4-22.3-8.8-27.1-16.7
					C258.8,131.2,258.3,125.8,258.9,121.6z"/>
				<path class="st3" d="M239.2,83c5.8,26.7,8.1,42.7,21.7,53.9c20.6,16.9,46.5-2,47.5-30.2c0.9-25.4-8.7-64.8-32.6-70.4
					C252.2,30.8,233.4,56.3,239.2,83z"/>
				<path class="st4" d="M243.8,44.8c9.8,8.3,22,43.6-2.9,57.8C218.8,79.4,224.6,44.8,243.8,44.8z"/>
				<path class="st4" d="M238.1,49.1c-4.2-23.3,44.9-35.2,60.4-8.1C303.8,57.2,241.1,71.7,238.1,49.1z"/>
				<path class="st4" d="M274.8,111.3C274.8,111.3,274.8,111.3,274.8,111.3c8.5-4.5,15.4-4.8,16.2-4.9c0.4,0,0.6,0.3,0.6,0.7
					c0,0.4-0.4,0.8-0.7,0.8c-0.5,0.1-7.3,0.3-15.5,4.7c-0.3,0.2-0.7,0-0.8-0.4C274.3,111.9,274.5,111.5,274.8,111.3z"/>
				<path class="st3" d="M233.8,112.2c4.2,5.5,10.2,8.1,15.3,8.2c7.7,0.2,9.6-8.5,5.9-16c-3.3-6.7-11.4-15-18.3-11.6
					C229.8,96.1,229,106,233.8,112.2z"/>
				<path class="st4" d="M274.7,82.6c0.4,2.2,1.6,3.8,2.8,3.5c1.2-0.3,1.9-2.3,1.5-4.5c-0.4-2.2-1.6-3.8-2.8-3.5
					C275,78.4,274.3,80.4,274.7,82.6z"/>
				<path class="st4" d="M295.5,77.7c0.4,2.2,1.6,3.8,2.8,3.5c1.2-0.3,1.9-2.3,1.5-4.5c-0.4-2.2-1.6-3.8-2.8-3.5
					C295.8,73.5,295.1,75.5,295.5,77.7z"/>
				<path class="st6" d="M289.1,80.4c0,0,6.3,11.7,11.9,16.8c-2.7,4.4-8.8,3.5-8.8,3.5L289.1,80.4z"/>
				<path class="st4" d="M277.7,69.8c-0.4-0.1-0.8,0-1.1,0.4c-3.2,4.4-7.3,3.8-7.3,3.8c-0.6-0.1-1.2,0.4-1.2,1.1
					c-0.1,0.7,0.3,1.4,0.9,1.5c0.2,0,5.3,0.8,9.3-4.6c0.4-0.5,0.4-1.4-0.1-1.9C278,70,277.9,69.9,277.7,69.8z"/>
				<path class="st4" d="M301.9,62.5c0.2-0.1,0.4-0.2,0.6-0.5c0.4-0.6,0.3-1.4-0.2-1.8c-4.8-4.5-9.6-2.6-9.8-2.5
					c-0.6,0.2-0.9,1-0.7,1.7c0.2,0.7,0.8,1,1.4,0.8l0,0c0.2-0.1,3.9-1.5,7.8,2.1C301.2,62.6,301.6,62.6,301.9,62.5z"/>
				<path class="st3" d="M213.2,410.3l23.6-0.2l-12.2,32.4c0,0-20.1-5.2-19-18.2L213.2,410.3z"/>
				<path class="st3" d="M248.8,432.3l-3.9,9.1c-2.1,5-7.2,7.3-11.6,5.2l-8.7-4.2l12.2-32.4l9.4,8.5
					C249.7,421.8,250.9,427.6,248.8,432.3z"/>
			</g>
		</g>
		<path class="st2" d="M392.9,386.4c3.7,0,7.3-1.6,10.2-4.9c5.8-6.7,5.9-17.8,0.3-24.7c-10.5-12.9-20-22.9-28.3-31.7
			c-20.2-21.3-27.1-29.4-26.4-45.5c0.3-7.4,2.7-17.9,5.2-29c6-26.4,12.8-56.3,1.2-80.3c-6.3-12.9-16.9-21.7-31.6-26.3
			c-7.8-2.4-15.8,3.2-17.8,12.5c-2,9.3,2.7,18.9,10.5,21.3c10.3,3.2,12.8,8.3,13.7,10c5.5,11.3,0.2,34.8-4.1,53.6
			c-3,13-5.8,25.3-6.2,36.4c-1.4,33.6,15.2,51.2,36.3,73.4c8,8.4,17,17.9,26.7,29.9C385.2,384.7,389.1,386.4,392.9,386.4z"/>
		<path class="st3" d="M360.8,135.7l-22.9-7l5.3,34.9c0,0,20.6,0.8,22.1-12.2L360.8,135.7z"/>
		<path class="st3" d="M321.9,147.3l1.8,9.1c1.1,5.8,5.7,9.6,10.7,8.8l8.9-1.5l-5.3-34.9l-10.5,5.4
			C323.2,136.4,320.9,141.9,321.9,147.3z"/>
		<g>
			<path class="st4" d="M492.1,437.9l0.6-0.8c2.8-3.3,2.8-8.7,0-12l-81-96.8c-2.8-3.3-7.3-3.3-10,0l-0.6,0.8c-2.8,3.3-2.8,8.7,0,12
				l81,96.8C484.8,441.2,489.3,441.2,492.1,437.9z"/>
			<path class="st4" d="M449.9,488.2l0.6-0.8c2.8-3.3,2.8-8.7,0-12l-81-96.8c-2.8-3.3-7.3-3.3-10,0l-0.6,0.8c-2.8,3.3-2.8,8.7,0,12
				l81,96.8C442.6,491.5,447.1,491.5,449.9,488.2z"/>
			<g>
				<path class="st2" d="M332.4,389.6l57.1,68.2l77.7-92.9l-57.1-68.2c-7.7-9.1-20.2-9.1-27.8,0l-49.9,59.6
					C324.8,365.5,324.8,380.5,332.4,389.6z"/>
				<path class="st7" d="M332.4,389.6l57.1,68.2l77.7-92.9l-57.1-68.2c-7.7-9.1-20.2-9.1-27.8,0l-49.9,59.6
					C324.8,365.5,324.8,380.5,332.4,389.6z"/>
			</g>
			<path class="st8" d="M447.5,341.4l19.8,23.6l-77.7,92.9l-19.8-23.6c0.8-2.7,2-5.2,3.8-7.3l67.8-81
				C443.2,343.8,445.2,342.3,447.5,341.4z"/>
			<path class="st2" d="M379.5,461.8l1.4,1.7c6,7.2,15.8,7.2,21.9,0l69.2-82.7c6-7.2,6-18.9,0-26.1l-1.4-1.7c-6-7.2-15.8-7.2-21.9,0
				l-69.2,82.7C373.5,442.9,373.5,454.7,379.5,461.8z"/>
		</g>
	</g>
</g>
</svg>
